<svg xmlns="http://www.w3.org/2000/svg" xmlns:xlink="http://www.w3.org/1999/xlink" width="500" zoomAndPan="magnify" viewBox="0 0 375 374.999991" height="500" preserveAspectRatio="xMidYMid meet" version="1.0"><defs><clipPath id="41e1f2918c"><path d="M 9.375 98.484375 L 365.625 98.484375 L 365.625 287.296875 L 9.375 287.296875 Z M 9.375 98.484375 " clip-rule="nonzero"/></clipPath><clipPath id="4db79d93d7"><path d="M 248.199219 87.484375 L 353.292969 87.484375 L 353.292969 192.578125 L 248.199219 192.578125 Z M 248.199219 87.484375 " clip-rule="nonzero"/></clipPath></defs><g clip-path="url(#41e1f2918c)"><path fill="#a6a6a6" d="M 300.433594 156.984375 C 294.523438 156.984375 288.808594 157.78125 283.363281 159.253906 C 271.21875 123.941406 237.699219 98.550781 198.226562 98.550781 C 160.777344 98.550781 128.679688 121.402344 115.113281 153.902344 C 110.273438 152.371094 105.125 151.539062 99.78125 151.539062 C 71.796875 151.539062 49.113281 174.199219 49.113281 202.15625 C 49.113281 202.1875 49.117188 202.21875 49.117188 202.253906 C 26.929688 203.695312 9.375 222.121094 9.375 244.652344 C 9.375 268.121094 28.421875 287.148438 51.917969 287.148438 C 52.570312 287.148438 53.214844 287.128906 53.859375 287.101562 L 53.863281 287.148438 L 54.191406 287.089844 C 54.484375 287.070312 54.773438 287.042969 55.0625 287.019531 L 295.429688 287.019531 C 297.082031 287.148438 298.75 287.230469 300.433594 287.230469 C 336.4375 287.230469 365.625 258.074219 365.625 222.109375 C 365.625 186.144531 336.441406 156.984375 300.433594 156.984375 Z M 300.433594 156.984375 " fill-opacity="1" fill-rule="nonzero"/></g><g clip-path="url(#4db79d93d7)"><path fill="#353434" d="M 353.3125 140.050781 C 353.3125 169.070312 329.785156 192.601562 300.761719 192.601562 C 271.742188 192.601562 248.210938 169.070312 248.210938 140.050781 C 248.214844 111.027344 271.742188 87.5 300.761719 87.5 C 329.785156 87.5 353.3125 111.027344 353.3125 140.050781 " fill-opacity="1" fill-rule="nonzero"/></g><path fill="#ffffff" d="M 289.140625 148.082031 L 278.464844 138.503906 L 281.988281 137.582031 L 278.714844 130.125 L 286.1875 133.367188 L 287.09375 129.835938 L 295.15625 138.746094 L 291.746094 122.65625 L 296.359375 125.359375 L 300.707031 114.207031 L 305.097656 125.335938 L 309.707031 122.617188 L 306.363281 138.71875 L 314.386719 129.78125 L 315.308594 133.304688 L 322.765625 130.03125 L 319.527344 137.5 L 323.050781 138.410156 L 312.417969 148.03125 C 312.417969 148.03125 309.5625 151.367188 312.433594 154.699219 L 301.570312 152.796875 L 302.394531 165.882812 L 299.238281 165.890625 L 300.003906 152.796875 L 289.152344 154.746094 C 292.011719 151.40625 289.140625 148.082031 289.140625 148.082031 M 327.742188 181.050781 L 327.566406 98.929688 C 319.863281 93.898438 310.664062 90.972656 300.777344 90.96875 L 300.746094 90.96875 C 290.785156 90.972656 281.519531 93.945312 273.785156 99.046875 L 273.960938 181.167969 C 281.664062 186.199219 290.859375 189.125 300.746094 189.128906 L 300.785156 189.128906 C 310.742188 189.125 320.003906 186.152344 327.742188 181.054688 " fill-opacity="1" fill-rule="nonzero"/><path fill="#ed2026" d="M 251.683594 140.050781 C 251.683594 157.265625 260.546875 172.40625 273.960938 181.167969 L 273.785156 99.042969 C 260.46875 107.824219 251.683594 122.910156 251.683594 140.050781 " fill-opacity="1" fill-rule="nonzero"/><path fill="#ed2026" d="M 349.839844 140.050781 C 349.839844 122.835938 340.976562 107.691406 327.566406 98.929688 L 327.742188 181.050781 C 341.054688 172.273438 349.839844 157.191406 349.839844 140.050781 " fill-opacity="1" fill-rule="nonzero"/><path fill="#ed2026" d="M 300.003906 152.796875 L 299.238281 165.890625 L 302.394531 165.882812 L 301.570312 152.796875 L 312.433594 154.699219 C 309.5625 151.367188 312.417969 148.03125 312.417969 148.03125 L 323.050781 138.410156 L 319.527344 137.5 L 322.765625 130.03125 L 315.308594 133.304688 L 314.386719 129.78125 L 306.363281 138.71875 L 309.707031 122.617188 L 305.097656 125.335938 L 300.707031 114.207031 L 296.359375 125.359375 L 291.746094 122.652344 L 295.15625 138.746094 L 287.09375 129.835938 L 286.1875 133.367188 L 278.714844 130.125 L 281.988281 137.582031 L 278.464844 138.503906 L 289.140625 148.082031 C 289.140625 148.082031 292.011719 151.40625 289.152344 154.746094 L 300.003906 152.796875 " fill-opacity="1" fill-rule="nonzero"/><path fill="#234974" d="M 318.421875 140.574219 C 318.421875 140.90625 318.410156 141.238281 318.394531 141.570312 C 318.410156 141.238281 318.421875 140.90625 318.421875 140.574219 " fill-opacity="1" fill-rule="nonzero"/><path fill="#234974" d="M 318.390625 141.609375 C 318.371094 141.925781 318.34375 142.246094 318.304688 142.5625 C 318.34375 142.246094 318.371094 141.929688 318.390625 141.609375 " fill-opacity="1" fill-rule="nonzero"/><path fill="#234974" d="M 318.398438 139.648438 C 318.414062 139.953125 318.421875 140.261719 318.421875 140.574219 C 318.421875 140.261719 318.414062 139.953125 318.398438 139.648438 " fill-opacity="1" fill-rule="nonzero"/><path fill="#234974" d="M 284.339844 134.082031 C 284.429688 133.84375 284.535156 133.605469 284.636719 133.367188 C 284.535156 133.605469 284.429688 133.84375 284.339844 134.082031 " fill-opacity="1" fill-rule="nonzero"/><path fill="#282b2c" d="M 302.972656 189.078125 L 302.976562 189.078125 L 302.972656 189.078125 M 303.050781 189.074219 L 303.058594 189.074219 L 303.050781 189.074219 M 303.085938 189.074219 L 303.097656 189.074219 L 303.085938 189.074219 M 303.117188 189.074219 C 303.128906 189.074219 303.144531 189.070312 303.15625 189.070312 C 303.140625 189.070312 303.128906 189.074219 303.117188 189.074219 M 303.164062 189.070312 L 303.1875 189.070312 L 303.164062 189.070312 M 303.191406 189.070312 C 312.234375 188.628906 320.632812 185.738281 327.742188 181.050781 C 340.300781 172.773438 348.832031 158.875 349.761719 142.941406 C 348.308594 167.898438 328.210938 187.851562 303.191406 189.070312 M 295.929688 188.894531 C 295.925781 188.894531 295.921875 188.894531 295.917969 188.890625 C 295.921875 188.894531 295.925781 188.894531 295.929688 188.894531 M 295.910156 188.890625 C 280.625 187.394531 267.394531 178.878906 259.488281 166.613281 C 263.234375 172.421875 268.171875 177.390625 273.960938 181.167969 L 273.945312 175.324219 L 273.960938 181.167969 C 280.390625 185.367188 287.863281 188.101562 295.910156 188.890625 " fill-opacity="1" fill-rule="nonzero"/><path fill="#b0c0c8" d="M 300.761719 189.128906 C 299.132812 189.128906 297.519531 189.050781 295.929688 188.894531 C 295.925781 188.894531 295.921875 188.894531 295.917969 188.890625 L 295.910156 188.890625 C 287.863281 188.101562 280.390625 185.367188 273.960938 181.167969 L 273.945312 175.324219 C 279.4375 177.449219 285.402344 178.613281 291.636719 178.613281 C 305.898438 178.613281 318.734375 172.53125 327.703125 162.824219 L 327.742188 181.050781 C 320.632812 185.738281 312.234375 188.628906 303.191406 189.070312 L 303.15625 189.070312 C 303.144531 189.070312 303.128906 189.074219 303.117188 189.074219 L 303.050781 189.074219 C 303.023438 189.078125 303 189.078125 302.976562 189.078125 L 302.972656 189.078125 C 302.238281 189.109375 301.503906 189.128906 300.761719 189.128906 " fill-opacity="1" fill-rule="nonzero"/><path fill="#282b2c" d="M 349.761719 142.941406 C 349.761719 142.917969 349.761719 142.894531 349.761719 142.871094 C 349.761719 142.894531 349.761719 142.917969 349.761719 142.941406 M 349.761719 142.863281 C 349.761719 142.847656 349.761719 142.835938 349.765625 142.816406 C 349.761719 142.835938 349.761719 142.847656 349.761719 142.863281 M 349.765625 142.816406 L 349.765625 142.800781 L 349.765625 142.816406 M 349.765625 142.785156 L 349.765625 142.761719 L 349.765625 142.785156 M 349.769531 142.738281 L 349.769531 142.722656 L 349.769531 142.738281 M 349.769531 142.699219 C 349.773438 142.695312 349.773438 142.691406 349.773438 142.683594 C 349.773438 142.691406 349.773438 142.695312 349.769531 142.699219 M 349.773438 142.65625 L 349.773438 142.648438 L 349.773438 142.65625 M 349.777344 142.617188 L 349.777344 142.609375 L 349.777344 142.617188 M 349.777344 142.582031 L 349.777344 142.570312 L 349.777344 142.582031 M 349.78125 142.539062 L 349.78125 142.53125 L 349.78125 142.539062 M 349.785156 142.460938 L 349.785156 142.457031 L 349.785156 142.460938 M 349.839844 140.167969 L 349.839844 140.164062 L 349.839844 140.167969 M 349.839844 140.128906 L 349.839844 140.128906 M 349.839844 140.089844 L 349.839844 140.085938 L 349.839844 140.089844 M 349.839844 140.050781 L 349.839844 140.023438 L 349.839844 140.050781 M 349.839844 140.019531 L 349.839844 140 L 349.839844 140.019531 M 349.839844 139.996094 L 349.839844 139.976562 L 349.839844 139.996094 M 349.839844 139.972656 L 349.839844 139.949219 L 349.839844 139.972656 M 349.839844 139.945312 C 349.8125 125.183594 343.261719 111.953125 332.917969 102.976562 C 332.917969 102.972656 332.914062 102.972656 332.914062 102.96875 C 343.257812 111.945312 349.8125 125.179688 349.839844 139.945312 " fill-opacity="1" fill-rule="nonzero"/><path fill="#a91b1f" d="M 273.960938 181.167969 C 268.171875 177.390625 263.234375 172.421875 259.488281 166.613281 C 263.730469 170.296875 268.617188 173.261719 273.945312 175.324219 L 273.960938 181.167969 " fill-opacity="1" fill-rule="nonzero"/><path fill="#a91b1f" d="M 327.742188 181.050781 L 327.703125 162.824219 C 335.78125 154.074219 340.722656 142.378906 340.722656 129.53125 C 340.722656 119.746094 337.855469 110.632812 332.917969 102.976562 C 343.261719 111.953125 349.8125 125.183594 349.839844 139.945312 L 349.839844 140.285156 C 349.835938 140.988281 349.820312 141.6875 349.789062 142.378906 C 349.789062 142.40625 349.785156 142.429688 349.785156 142.457031 L 349.785156 142.460938 C 349.78125 142.484375 349.78125 142.507812 349.78125 142.53125 L 349.78125 142.539062 C 349.78125 142.546875 349.78125 142.5625 349.777344 142.570312 L 349.777344 142.617188 C 349.773438 142.625 349.773438 142.640625 349.773438 142.648438 L 349.773438 142.683594 C 349.773438 142.691406 349.773438 142.695312 349.769531 142.699219 L 349.769531 142.738281 C 349.769531 142.746094 349.765625 142.753906 349.765625 142.761719 L 349.765625 142.816406 C 349.761719 142.835938 349.761719 142.847656 349.761719 142.863281 L 349.761719 142.871094 C 349.761719 142.894531 349.761719 142.917969 349.761719 142.941406 C 348.832031 158.875 340.300781 172.773438 327.742188 181.050781 " fill-opacity="1" fill-rule="nonzero"/><path fill="#ffffff" d="M 273.804688 109.621094 L 273.785156 101.03125 C 284.050781 94.535156 296.042969 92.859375 302.46875 92.859375 C 305.023438 92.859375 306.699219 93.125 307.03125 93.457031 C 308.339844 94.765625 288.441406 96.640625 273.804688 109.621094 " fill-opacity="1" fill-rule="nonzero"/><path fill="#f25b49" d="M 253.757812 146.921875 C 253.714844 146.921875 253.671875 146.898438 253.628906 146.859375 C 252.261719 145.492188 252.03125 121.351562 266.78125 106.609375 C 268.949219 104.4375 271.316406 102.597656 273.785156 101.03125 L 273.804688 109.621094 C 273.105469 110.246094 272.414062 110.894531 271.742188 111.566406 C 257.4375 125.871094 255.128906 146.921875 253.757812 146.921875 " fill-opacity="1" fill-rule="nonzero"/></svg>