<svg xmlns="http://www.w3.org/2000/svg" xmlns:xlink="http://www.w3.org/1999/xlink" width="500" zoomAndPan="magnify" viewBox="0 0 375 374.999991" height="500" preserveAspectRatio="xMidYMid meet" version="1.0"><defs><g/><clipPath id="115ae9d037"><path d="M 37.5 141.515625 L 187.5 141.515625 L 187.5 221 L 37.5 221 Z M 37.5 141.515625 " clip-rule="nonzero"/></clipPath><clipPath id="1a3fef7b37"><path d="M 138.058594 136.882812 L 182.308594 136.882812 L 182.308594 181.132812 L 138.058594 181.132812 Z M 138.058594 136.882812 " clip-rule="nonzero"/></clipPath></defs><g clip-path="url(#115ae9d037)"><path fill="#d9d9d9" d="M 160.050781 166.144531 C 157.5625 166.144531 155.15625 166.480469 152.863281 167.101562 C 147.75 152.234375 133.636719 141.542969 117.015625 141.542969 C 101.25 141.542969 87.734375 151.164062 82.019531 164.847656 C 79.984375 164.203125 77.816406 163.851562 75.566406 163.851562 C 63.785156 163.851562 54.234375 173.394531 54.234375 185.164062 C 54.234375 185.179688 54.234375 185.191406 54.234375 185.207031 C 44.890625 185.8125 37.5 193.570312 37.5 203.058594 C 37.5 212.941406 45.519531 220.953125 55.414062 220.953125 C 55.6875 220.953125 55.960938 220.945312 56.230469 220.929688 L 56.230469 220.953125 L 56.371094 220.925781 C 56.492188 220.917969 56.613281 220.90625 56.738281 220.898438 L 157.945312 220.898438 C 158.640625 220.953125 159.339844 220.984375 160.050781 220.984375 C 175.210938 220.984375 187.5 208.710938 187.5 193.566406 C 187.5 178.421875 175.210938 166.144531 160.050781 166.144531 Z M 160.050781 166.144531 " fill-opacity="1" fill-rule="nonzero"/></g><g clip-path="url(#1a3fef7b37)"><path fill="#353434" d="M 182.316406 159.015625 C 182.316406 171.234375 172.410156 181.140625 160.1875 181.140625 C 147.96875 181.140625 138.0625 171.234375 138.0625 159.015625 C 138.0625 146.796875 147.96875 136.890625 160.1875 136.890625 C 172.410156 136.890625 182.316406 146.796875 182.316406 159.015625 " fill-opacity="1" fill-rule="nonzero"/></g><path fill="#ffffff" d="M 155.296875 162.398438 L 150.800781 158.363281 L 152.285156 157.976562 L 150.90625 154.835938 L 154.050781 156.203125 L 154.433594 154.714844 L 157.828125 158.464844 L 156.390625 151.691406 L 158.335938 152.828125 L 160.164062 148.136719 L 162.015625 152.820312 L 163.953125 151.675781 L 162.546875 158.457031 L 165.925781 154.691406 L 166.3125 156.175781 L 169.453125 154.796875 L 168.089844 157.941406 L 169.574219 158.324219 L 165.097656 162.375 C 165.097656 162.375 163.894531 163.78125 165.105469 165.183594 L 160.53125 164.382812 L 160.878906 169.894531 L 159.546875 169.894531 L 159.871094 164.382812 L 155.300781 165.203125 C 156.503906 163.796875 155.296875 162.398438 155.296875 162.398438 M 171.546875 176.28125 L 171.476562 141.703125 C 168.230469 139.585938 164.359375 138.351562 160.195312 138.351562 L 160.183594 138.351562 C 155.988281 138.351562 152.089844 139.601562 148.828125 141.75 L 148.90625 176.328125 C 152.148438 178.449219 156.019531 179.679688 160.183594 179.679688 L 160.199219 179.679688 C 164.390625 179.679688 168.289062 178.429688 171.546875 176.28125 " fill-opacity="1" fill-rule="nonzero"/><path fill="#ed2026" d="M 139.523438 159.015625 C 139.523438 166.265625 143.257812 172.640625 148.90625 176.328125 L 148.828125 141.75 C 143.222656 145.449219 139.523438 151.796875 139.523438 159.015625 " fill-opacity="1" fill-rule="nonzero"/><path fill="#ed2026" d="M 180.855469 159.015625 C 180.855469 151.765625 177.121094 145.390625 171.476562 141.703125 L 171.546875 176.28125 C 177.152344 172.582031 180.855469 166.234375 180.855469 159.015625 " fill-opacity="1" fill-rule="nonzero"/><path fill="#ed2026" d="M 159.871094 164.382812 L 159.546875 169.894531 L 160.878906 169.894531 L 160.53125 164.382812 L 165.105469 165.183594 C 163.894531 163.78125 165.097656 162.375 165.097656 162.375 L 169.574219 158.324219 L 168.089844 157.941406 L 169.453125 154.796875 L 166.3125 156.175781 L 165.925781 154.691406 L 162.546875 158.457031 L 163.953125 151.675781 L 162.015625 152.820312 L 160.164062 148.136719 L 158.335938 152.828125 L 156.390625 151.691406 L 157.828125 158.464844 L 154.433594 154.714844 L 154.050781 156.203125 L 150.90625 154.835938 L 152.285156 157.976562 L 150.800781 158.363281 L 155.296875 162.398438 C 155.296875 162.398438 156.503906 163.796875 155.300781 165.203125 L 159.871094 164.382812 " fill-opacity="1" fill-rule="nonzero"/><path fill="#234974" d="M 167.625 159.234375 C 167.625 159.375 167.621094 159.515625 167.613281 159.65625 C 167.621094 159.515625 167.625 159.375 167.625 159.234375 " fill-opacity="1" fill-rule="nonzero"/><path fill="#234974" d="M 167.613281 159.671875 C 167.601562 159.804688 167.59375 159.941406 167.578125 160.074219 C 167.59375 159.941406 167.601562 159.808594 167.613281 159.671875 " fill-opacity="1" fill-rule="nonzero"/><path fill="#234974" d="M 167.613281 158.847656 C 167.621094 158.976562 167.625 159.105469 167.625 159.234375 C 167.625 159.105469 167.621094 158.976562 167.613281 158.847656 " fill-opacity="1" fill-rule="nonzero"/><path fill="#234974" d="M 153.273438 156.503906 C 153.3125 156.402344 153.355469 156.300781 153.398438 156.203125 C 153.355469 156.300781 153.3125 156.402344 153.273438 156.503906 " fill-opacity="1" fill-rule="nonzero"/><path fill="#282b2c" d="M 161.121094 179.660156 L 161.121094 179.660156 M 161.152344 179.65625 L 161.15625 179.65625 L 161.152344 179.65625 M 161.167969 179.65625 L 161.171875 179.65625 L 161.167969 179.65625 M 161.179688 179.65625 C 161.1875 179.65625 161.191406 179.65625 161.195312 179.65625 C 161.191406 179.65625 161.1875 179.65625 161.179688 179.65625 M 161.199219 179.65625 L 161.210938 179.65625 L 161.199219 179.65625 M 161.210938 179.65625 C 165.019531 179.46875 168.554688 178.253906 171.546875 176.28125 C 176.835938 172.792969 180.429688 166.941406 180.820312 160.234375 C 180.207031 170.742188 171.746094 179.144531 161.210938 179.65625 M 158.15625 179.582031 C 158.152344 179.582031 158.152344 179.582031 158.148438 179.582031 C 158.152344 179.582031 158.152344 179.582031 158.15625 179.582031 M 158.144531 179.582031 C 151.710938 178.949219 146.140625 175.367188 142.8125 170.199219 C 144.386719 172.644531 146.46875 174.738281 148.90625 176.328125 L 148.898438 173.867188 L 148.90625 176.328125 C 151.613281 178.097656 154.757812 179.25 158.144531 179.582031 " fill-opacity="1" fill-rule="nonzero"/><path fill="#b0c0c8" d="M 160.1875 179.679688 C 159.503906 179.679688 158.824219 179.648438 158.15625 179.582031 C 158.152344 179.582031 158.152344 179.582031 158.148438 179.582031 L 158.144531 179.582031 C 154.757812 179.25 151.613281 178.097656 148.90625 176.328125 L 148.898438 173.867188 C 151.210938 174.761719 153.722656 175.253906 156.347656 175.253906 C 162.351562 175.253906 167.757812 172.691406 171.53125 168.605469 L 171.546875 176.28125 C 168.554688 178.253906 165.019531 179.46875 161.210938 179.65625 L 161.195312 179.65625 C 161.191406 179.65625 161.1875 179.65625 161.179688 179.65625 L 161.152344 179.65625 C 161.140625 179.660156 161.132812 179.660156 161.121094 179.660156 C 160.8125 179.671875 160.5 179.679688 160.1875 179.679688 " fill-opacity="1" fill-rule="nonzero"/><path fill="#282b2c" d="M 180.820312 160.234375 C 180.820312 160.222656 180.820312 160.214844 180.820312 160.203125 C 180.820312 160.214844 180.820312 160.222656 180.820312 160.234375 M 180.820312 160.199219 C 180.820312 160.195312 180.820312 160.1875 180.824219 160.179688 C 180.820312 160.1875 180.820312 160.195312 180.820312 160.199219 M 180.824219 160.179688 L 180.824219 160.171875 L 180.824219 160.179688 M 180.824219 160.167969 L 180.824219 160.15625 L 180.824219 160.167969 M 180.824219 160.148438 L 180.824219 160.140625 L 180.824219 160.148438 M 180.824219 160.132812 C 180.824219 160.128906 180.824219 160.128906 180.824219 160.125 C 180.824219 160.128906 180.824219 160.128906 180.824219 160.132812 M 180.824219 160.113281 L 180.824219 160.109375 L 180.824219 160.113281 M 180.828125 160.097656 L 180.828125 160.09375 L 180.828125 160.097656 M 180.828125 160.082031 L 180.828125 160.078125 L 180.828125 160.082031 M 180.828125 160.0625 L 180.828125 160.058594 L 180.828125 160.0625 M 180.832031 160.03125 L 180.832031 160.027344 L 180.832031 160.03125 M 180.855469 159.066406 L 180.855469 159.066406 M 180.855469 159.050781 L 180.855469 159.046875 L 180.855469 159.050781 M 180.855469 159.035156 L 180.855469 159.03125 L 180.855469 159.035156 M 180.855469 159.015625 L 180.855469 159.003906 L 180.855469 159.015625 M 180.855469 159.003906 L 180.855469 158.996094 L 180.855469 159.003906 M 180.855469 158.992188 L 180.855469 158.984375 L 180.855469 158.992188 M 180.855469 158.984375 L 180.855469 158.972656 L 180.855469 158.984375 M 180.855469 158.972656 C 180.84375 152.757812 178.085938 147.1875 173.730469 143.40625 C 173.730469 143.402344 173.726562 143.402344 173.726562 143.402344 C 178.082031 147.183594 180.84375 152.753906 180.855469 158.972656 " fill-opacity="1" fill-rule="nonzero"/><path fill="#a91b1f" d="M 148.90625 176.328125 C 146.46875 174.738281 144.386719 172.644531 142.808594 170.199219 C 144.597656 171.75 146.652344 173 148.898438 173.867188 L 148.90625 176.328125 " fill-opacity="1" fill-rule="nonzero"/><path fill="#a91b1f" d="M 171.546875 176.28125 L 171.53125 168.605469 C 174.933594 164.921875 177.015625 159.996094 177.015625 154.585938 C 177.015625 150.464844 175.808594 146.628906 173.730469 143.40625 C 178.085938 147.1875 180.84375 152.757812 180.855469 158.972656 L 180.855469 159.117188 C 180.851562 159.410156 180.84375 159.703125 180.832031 159.996094 C 180.832031 160.007812 180.832031 160.015625 180.832031 160.027344 L 180.832031 160.03125 C 180.828125 160.042969 180.828125 160.050781 180.828125 160.058594 L 180.828125 160.0625 C 180.828125 160.066406 180.828125 160.074219 180.828125 160.078125 L 180.828125 160.097656 C 180.824219 160.101562 180.824219 160.105469 180.824219 160.109375 L 180.824219 160.125 C 180.824219 160.128906 180.824219 160.128906 180.824219 160.132812 L 180.824219 160.148438 C 180.824219 160.152344 180.824219 160.152344 180.824219 160.15625 L 180.824219 160.179688 C 180.820312 160.1875 180.820312 160.195312 180.820312 160.199219 L 180.820312 160.203125 C 180.820312 160.214844 180.820312 160.222656 180.820312 160.234375 C 180.429688 166.941406 176.835938 172.792969 171.546875 176.28125 " fill-opacity="1" fill-rule="nonzero"/><path fill="#ffffff" d="M 148.839844 146.203125 L 148.832031 142.585938 C 153.152344 139.851562 158.203125 139.144531 160.910156 139.144531 C 161.984375 139.144531 162.691406 139.257812 162.828125 139.398438 C 163.378906 139.949219 155.003906 140.738281 148.839844 146.203125 " fill-opacity="1" fill-rule="nonzero"/><path fill="#f25b49" d="M 140.398438 161.910156 C 140.378906 161.910156 140.363281 161.898438 140.34375 161.882812 C 139.769531 161.308594 139.671875 151.144531 145.882812 144.933594 C 146.792969 144.019531 147.789062 143.246094 148.832031 142.585938 L 148.839844 146.203125 C 148.542969 146.46875 148.253906 146.738281 147.96875 147.023438 C 141.945312 153.046875 140.976562 161.910156 140.398438 161.910156 " fill-opacity="1" fill-rule="nonzero"/><g fill="#ffffff" fill-opacity="1"><g transform="translate(195.322258, 177.649911)"><g><path d="M 2.28125 -17.953125 C 2.28125 -18.953125 2.570312 -19.742188 3.15625 -20.328125 C 3.738281 -20.910156 4.53125 -21.203125 5.53125 -21.203125 L 17.078125 -21.203125 C 17.242188 -20.953125 17.390625 -20.613281 17.515625 -20.1875 C 17.640625 -19.769531 17.703125 -19.328125 17.703125 -18.859375 C 17.703125 -17.972656 17.507812 -17.34375 17.125 -16.96875 C 16.75 -16.601562 16.242188 -16.421875 15.609375 -16.421875 L 8.21875 -16.421875 L 8.21875 -13.15625 L 16.09375 -13.15625 C 16.257812 -12.90625 16.40625 -12.570312 16.53125 -12.15625 C 16.664062 -11.75 16.734375 -11.3125 16.734375 -10.84375 C 16.734375 -9.957031 16.546875 -9.328125 16.171875 -8.953125 C 15.796875 -8.585938 15.296875 -8.40625 14.671875 -8.40625 L 8.21875 -8.40625 L 8.21875 -4.71875 L 17.21875 -4.71875 C 17.382812 -4.46875 17.53125 -4.128906 17.65625 -3.703125 C 17.78125 -3.285156 17.84375 -2.84375 17.84375 -2.375 C 17.84375 -1.488281 17.648438 -0.851562 17.265625 -0.46875 C 16.878906 -0.0820312 16.375 0.109375 15.75 0.109375 L 5.53125 0.109375 C 4.53125 0.109375 3.738281 -0.179688 3.15625 -0.765625 C 2.570312 -1.347656 2.28125 -2.144531 2.28125 -3.15625 Z M 2.28125 -17.953125 "/></g></g></g><g fill="#ffffff" fill-opacity="1"><g transform="translate(214.497932, 177.649911)"><g><path d="M 2.28125 -17.953125 C 2.28125 -18.953125 2.570312 -19.742188 3.15625 -20.328125 C 3.738281 -20.910156 4.53125 -21.203125 5.53125 -21.203125 L 17.078125 -21.203125 C 17.242188 -20.953125 17.390625 -20.613281 17.515625 -20.1875 C 17.640625 -19.769531 17.703125 -19.328125 17.703125 -18.859375 C 17.703125 -17.972656 17.507812 -17.34375 17.125 -16.96875 C 16.75 -16.601562 16.242188 -16.421875 15.609375 -16.421875 L 8.21875 -16.421875 L 8.21875 -13.15625 L 16.09375 -13.15625 C 16.257812 -12.90625 16.40625 -12.570312 16.53125 -12.15625 C 16.664062 -11.75 16.734375 -11.3125 16.734375 -10.84375 C 16.734375 -9.957031 16.546875 -9.328125 16.171875 -8.953125 C 15.796875 -8.585938 15.296875 -8.40625 14.671875 -8.40625 L 8.21875 -8.40625 L 8.21875 -4.71875 L 17.21875 -4.71875 C 17.382812 -4.46875 17.53125 -4.128906 17.65625 -3.703125 C 17.78125 -3.285156 17.84375 -2.84375 17.84375 -2.375 C 17.84375 -1.488281 17.648438 -0.851562 17.265625 -0.46875 C 16.878906 -0.0820312 16.375 0.109375 15.75 0.109375 L 5.53125 0.109375 C 4.53125 0.109375 3.738281 -0.179688 3.15625 -0.765625 C 2.570312 -1.347656 2.28125 -2.144531 2.28125 -3.15625 Z M 2.28125 -17.953125 "/></g></g></g><g fill="#ffffff" fill-opacity="1"><g transform="translate(233.673605, 177.649911)"><g/></g></g><g fill="#ffffff" fill-opacity="1"><g transform="translate(240.672021, 177.649911)"><g><path d="M 8.359375 -4.546875 C 8.617188 -4.503906 8.9375 -4.460938 9.3125 -4.421875 C 9.6875 -4.390625 10.035156 -4.375 10.359375 -4.375 C 11.148438 -4.375 11.878906 -4.488281 12.546875 -4.71875 C 13.210938 -4.957031 13.785156 -5.320312 14.265625 -5.8125 C 14.742188 -6.300781 15.113281 -6.9375 15.375 -7.71875 C 15.644531 -8.5 15.78125 -9.4375 15.78125 -10.53125 C 15.78125 -12.632812 15.289062 -14.21875 14.3125 -15.28125 C 13.332031 -16.34375 12.023438 -16.875 10.390625 -16.875 C 10.066406 -16.875 9.734375 -16.859375 9.390625 -16.828125 C 9.054688 -16.804688 8.710938 -16.773438 8.359375 -16.734375 Z M 10.328125 0.5625 C 9.929688 0.5625 9.472656 0.546875 8.953125 0.515625 C 8.441406 0.492188 7.910156 0.445312 7.359375 0.375 C 6.816406 0.3125 6.269531 0.226562 5.71875 0.125 C 5.175781 0.0195312 4.671875 -0.125 4.203125 -0.3125 C 2.921875 -0.800781 2.28125 -1.65625 2.28125 -2.875 L 2.28125 -19.21875 C 2.28125 -19.707031 2.410156 -20.082031 2.671875 -20.34375 C 2.941406 -20.613281 3.3125 -20.832031 3.78125 -21 C 4.78125 -21.320312 5.835938 -21.535156 6.953125 -21.640625 C 8.078125 -21.753906 9.082031 -21.8125 9.96875 -21.8125 C 11.789062 -21.8125 13.441406 -21.585938 14.921875 -21.140625 C 16.410156 -20.691406 17.679688 -20.003906 18.734375 -19.078125 C 19.796875 -18.160156 20.617188 -17.003906 21.203125 -15.609375 C 21.785156 -14.210938 22.078125 -12.554688 22.078125 -10.640625 C 22.078125 -8.773438 21.796875 -7.144531 21.234375 -5.75 C 20.679688 -4.363281 19.882812 -3.195312 18.84375 -2.25 C 17.8125 -1.3125 16.570312 -0.609375 15.125 -0.140625 C 13.675781 0.328125 12.078125 0.5625 10.328125 0.5625 Z M 10.328125 0.5625 "/></g></g></g><g fill="#ffffff" fill-opacity="1"><g transform="translate(263.976757, 177.649911)"><g><path d="M 7.765625 -0.03125 C 7.535156 0.03125 7.171875 0.0976562 6.671875 0.171875 C 6.171875 0.242188 5.648438 0.28125 5.109375 0.28125 C 4.597656 0.28125 4.132812 0.242188 3.71875 0.171875 C 3.3125 0.0976562 2.96875 -0.0390625 2.6875 -0.25 C 2.414062 -0.457031 2.203125 -0.738281 2.046875 -1.09375 C 1.890625 -1.457031 1.8125 -1.929688 1.8125 -2.515625 L 1.8125 -13.015625 C 1.8125 -13.554688 1.910156 -14.019531 2.109375 -14.40625 C 2.316406 -14.789062 2.601562 -15.132812 2.96875 -15.4375 C 3.34375 -15.738281 3.804688 -16.007812 4.359375 -16.25 C 4.910156 -16.5 5.5 -16.71875 6.125 -16.90625 C 6.75 -17.09375 7.398438 -17.238281 8.078125 -17.34375 C 8.753906 -17.445312 9.429688 -17.5 10.109375 -17.5 C 11.234375 -17.5 12.117188 -17.28125 12.765625 -16.84375 C 13.421875 -16.414062 13.75 -15.710938 13.75 -14.734375 C 13.75 -14.410156 13.703125 -14.085938 13.609375 -13.765625 C 13.515625 -13.453125 13.398438 -13.171875 13.265625 -12.921875 C 12.773438 -12.921875 12.269531 -12.894531 11.75 -12.84375 C 11.238281 -12.800781 10.738281 -12.734375 10.25 -12.640625 C 9.757812 -12.546875 9.296875 -12.445312 8.859375 -12.34375 C 8.429688 -12.238281 8.066406 -12.113281 7.765625 -11.96875 Z M 7.765625 -0.03125 "/></g></g></g><g fill="#ffffff" fill-opacity="1"><g transform="translate(278.358512, 177.649911)"><g><path d="M 9.09375 -3.78125 C 9.488281 -3.78125 9.925781 -3.820312 10.40625 -3.90625 C 10.882812 -3.988281 11.242188 -4.097656 11.484375 -4.234375 L 11.484375 -7.03125 L 8.953125 -6.828125 C 8.304688 -6.773438 7.769531 -6.632812 7.34375 -6.40625 C 6.925781 -6.175781 6.71875 -5.828125 6.71875 -5.359375 C 6.71875 -4.890625 6.898438 -4.507812 7.265625 -4.21875 C 7.628906 -3.925781 8.238281 -3.78125 9.09375 -3.78125 Z M 8.8125 -17.53125 C 10.070312 -17.53125 11.222656 -17.398438 12.265625 -17.140625 C 13.304688 -16.890625 14.191406 -16.5 14.921875 -15.96875 C 15.660156 -15.445312 16.226562 -14.785156 16.625 -13.984375 C 17.019531 -13.179688 17.21875 -12.226562 17.21875 -11.125 L 17.21875 -3.296875 C 17.21875 -2.679688 17.046875 -2.179688 16.703125 -1.796875 C 16.367188 -1.410156 15.96875 -1.082031 15.5 -0.8125 C 13.988281 0.101562 11.851562 0.5625 9.09375 0.5625 C 7.863281 0.5625 6.75 0.441406 5.75 0.203125 C 4.757812 -0.0234375 3.910156 -0.375 3.203125 -0.84375 C 2.492188 -1.3125 1.945312 -1.90625 1.5625 -2.625 C 1.175781 -3.34375 0.984375 -4.179688 0.984375 -5.140625 C 0.984375 -6.753906 1.457031 -7.992188 2.40625 -8.859375 C 3.363281 -9.722656 4.847656 -10.257812 6.859375 -10.46875 L 11.4375 -10.953125 L 11.4375 -11.203125 C 11.4375 -11.878906 11.140625 -12.363281 10.546875 -12.65625 C 9.953125 -12.945312 9.097656 -13.09375 7.984375 -13.09375 C 7.097656 -13.09375 6.234375 -13 5.390625 -12.8125 C 4.546875 -12.625 3.785156 -12.390625 3.109375 -12.109375 C 2.804688 -12.316406 2.550781 -12.632812 2.34375 -13.0625 C 2.132812 -13.5 2.03125 -13.953125 2.03125 -14.421875 C 2.03125 -15.023438 2.175781 -15.507812 2.46875 -15.875 C 2.757812 -16.238281 3.207031 -16.546875 3.8125 -16.796875 C 4.488281 -17.054688 5.285156 -17.242188 6.203125 -17.359375 C 7.128906 -17.472656 8 -17.53125 8.8125 -17.53125 Z M 8.8125 -17.53125 "/></g></g></g><g fill="#ffffff" fill-opacity="1"><g transform="translate(297.394212, 177.649911)"><g><path d="M 11.515625 -0.53125 C 11.191406 -0.25 10.75 -0.0195312 10.1875 0.15625 C 9.625 0.332031 8.957031 0.421875 8.1875 0.421875 C 7.226562 0.421875 6.398438 0.285156 5.703125 0.015625 C 5.003906 -0.253906 4.539062 -0.632812 4.3125 -1.125 C 4.050781 -1.675781 3.75 -2.554688 3.40625 -3.765625 C 3.070312 -4.984375 2.738281 -6.316406 2.40625 -7.765625 C 2.082031 -9.210938 1.773438 -10.679688 1.484375 -12.171875 C 1.191406 -13.671875 0.96875 -14.992188 0.8125 -16.140625 C 1.132812 -16.460938 1.566406 -16.742188 2.109375 -16.984375 C 2.660156 -17.234375 3.265625 -17.359375 3.921875 -17.359375 C 4.734375 -17.359375 5.398438 -17.175781 5.921875 -16.8125 C 6.453125 -16.457031 6.773438 -15.832031 6.890625 -14.9375 C 7.128906 -13.164062 7.328125 -11.703125 7.484375 -10.546875 C 7.648438 -9.390625 7.785156 -8.441406 7.890625 -7.703125 C 7.992188 -6.972656 8.070312 -6.414062 8.125 -6.03125 C 8.1875 -5.644531 8.242188 -5.335938 8.296875 -5.109375 L 8.4375 -5.109375 C 8.507812 -5.484375 8.628906 -6.023438 8.796875 -6.734375 C 8.972656 -7.453125 9.175781 -8.265625 9.40625 -9.171875 C 9.644531 -10.078125 9.890625 -11.0625 10.140625 -12.125 C 10.398438 -13.1875 10.660156 -14.242188 10.921875 -15.296875 C 11.390625 -15.554688 11.847656 -15.753906 12.296875 -15.890625 C 12.753906 -16.023438 13.320312 -16.09375 14 -16.09375 C 14.8125 -16.09375 15.507812 -15.960938 16.09375 -15.703125 C 16.675781 -15.453125 17.050781 -15.0625 17.21875 -14.53125 C 17.5 -13.5 17.765625 -12.5 18.015625 -11.53125 C 18.273438 -10.5625 18.507812 -9.660156 18.71875 -8.828125 C 18.9375 -8.003906 19.125 -7.269531 19.28125 -6.625 C 19.445312 -5.988281 19.566406 -5.484375 19.640625 -5.109375 L 19.8125 -5.109375 C 20.0625 -6.910156 20.3125 -8.773438 20.5625 -10.703125 C 20.8125 -12.640625 21.039062 -14.613281 21.25 -16.625 C 21.664062 -16.882812 22.109375 -17.070312 22.578125 -17.1875 C 23.046875 -17.300781 23.507812 -17.359375 23.96875 -17.359375 C 24.789062 -17.359375 25.46875 -17.179688 26 -16.828125 C 26.539062 -16.484375 26.8125 -15.878906 26.8125 -15.015625 C 26.8125 -14.640625 26.75 -14.078125 26.625 -13.328125 C 26.507812 -12.585938 26.359375 -11.75 26.171875 -10.8125 C 25.992188 -9.882812 25.78125 -8.90625 25.53125 -7.875 C 25.289062 -6.84375 25.046875 -5.847656 24.796875 -4.890625 C 24.554688 -3.941406 24.320312 -3.082031 24.09375 -2.3125 C 23.875 -1.539062 23.679688 -0.945312 23.515625 -0.53125 C 23.191406 -0.25 22.691406 -0.0195312 22.015625 0.15625 C 21.335938 0.332031 20.613281 0.421875 19.84375 0.421875 C 17.882812 0.421875 16.726562 -0.0664062 16.375 -1.046875 C 16.238281 -1.472656 16.066406 -2.003906 15.859375 -2.640625 C 15.648438 -3.285156 15.425781 -3.992188 15.1875 -4.765625 C 14.957031 -5.535156 14.734375 -6.332031 14.515625 -7.15625 C 14.304688 -7.988281 14.132812 -8.789062 14 -9.5625 C 13.832031 -8.738281 13.632812 -7.890625 13.40625 -7.015625 C 13.175781 -6.140625 12.9375 -5.285156 12.6875 -4.453125 C 12.4375 -3.628906 12.207031 -2.875 12 -2.1875 C 11.789062 -1.5 11.628906 -0.945312 11.515625 -0.53125 Z M 11.515625 -0.53125 "/></g></g></g><g fill="#ffffff" fill-opacity="1"><g transform="translate(325.07296, 177.649911)"><g><path d="M 16.171875 -5.078125 C 16.171875 -3.304688 15.503906 -1.914062 14.171875 -0.90625 C 12.847656 0.09375 10.890625 0.59375 8.296875 0.59375 C 7.316406 0.59375 6.40625 0.519531 5.5625 0.375 C 4.726562 0.238281 4.007812 0.0234375 3.40625 -0.265625 C 2.8125 -0.554688 2.34375 -0.921875 2 -1.359375 C 1.664062 -1.804688 1.5 -2.332031 1.5 -2.9375 C 1.5 -3.5 1.613281 -3.972656 1.84375 -4.359375 C 2.082031 -4.742188 2.363281 -5.0625 2.6875 -5.3125 C 3.363281 -4.945312 4.140625 -4.617188 5.015625 -4.328125 C 5.890625 -4.035156 6.898438 -3.890625 8.046875 -3.890625 C 8.773438 -3.890625 9.332031 -3.992188 9.71875 -4.203125 C 10.101562 -4.410156 10.296875 -4.691406 10.296875 -5.046875 C 10.296875 -5.367188 10.15625 -5.625 9.875 -5.8125 C 9.59375 -6 9.125 -6.148438 8.46875 -6.265625 L 7.421875 -6.46875 C 5.390625 -6.863281 3.878906 -7.488281 2.890625 -8.34375 C 1.898438 -9.195312 1.40625 -10.414062 1.40625 -12 C 1.40625 -12.863281 1.585938 -13.644531 1.953125 -14.34375 C 2.328125 -15.050781 2.851562 -15.632812 3.53125 -16.09375 C 4.207031 -16.5625 5.019531 -16.921875 5.96875 -17.171875 C 6.914062 -17.429688 7.957031 -17.5625 9.09375 -17.5625 C 9.957031 -17.5625 10.769531 -17.5 11.53125 -17.375 C 12.289062 -17.25 12.945312 -17.054688 13.5 -16.796875 C 14.0625 -16.546875 14.503906 -16.210938 14.828125 -15.796875 C 15.160156 -15.390625 15.328125 -14.90625 15.328125 -14.34375 C 15.328125 -13.8125 15.226562 -13.351562 15.03125 -12.96875 C 14.832031 -12.582031 14.582031 -12.257812 14.28125 -12 C 14.09375 -12.125 13.8125 -12.25 13.4375 -12.375 C 13.0625 -12.5 12.648438 -12.613281 12.203125 -12.71875 C 11.765625 -12.820312 11.316406 -12.910156 10.859375 -12.984375 C 10.410156 -13.054688 10 -13.09375 9.625 -13.09375 C 8.851562 -13.09375 8.253906 -13.003906 7.828125 -12.828125 C 7.410156 -12.648438 7.203125 -12.375 7.203125 -12 C 7.203125 -11.75 7.316406 -11.539062 7.546875 -11.375 C 7.785156 -11.207031 8.234375 -11.054688 8.890625 -10.921875 L 9.96875 -10.671875 C 12.207031 -10.160156 13.800781 -9.453125 14.75 -8.546875 C 15.695312 -7.648438 16.171875 -6.492188 16.171875 -5.078125 Z M 16.171875 -5.078125 "/></g></g></g><g fill="#ffffff" fill-opacity="1"><g transform="translate(267.90819, 203.594751)"><g><path d="M 0.53125 -1.9375 C 0.53125 -2.613281 0.738281 -3.175781 1.15625 -3.625 C 1.570312 -4.070312 2.140625 -4.296875 2.859375 -4.296875 C 3.578125 -4.296875 4.144531 -4.070312 4.5625 -3.625 C 4.976562 -3.175781 5.1875 -2.613281 5.1875 -1.9375 C 5.1875 -1.269531 4.976562 -0.710938 4.5625 -0.265625 C 4.144531 0.179688 3.578125 0.40625 2.859375 0.40625 C 2.140625 0.40625 1.570312 0.179688 1.15625 -0.265625 C 0.738281 -0.710938 0.53125 -1.269531 0.53125 -1.9375 Z M 0.53125 -1.9375 "/></g></g></g><g fill="#ffffff" fill-opacity="1"><g transform="translate(273.617395, 203.594751)"><g><path d="M 13.3125 -5.828125 C 13.3125 -4.835938 13.160156 -3.953125 12.859375 -3.171875 C 12.554688 -2.398438 12.128906 -1.75 11.578125 -1.21875 C 11.023438 -0.695312 10.363281 -0.296875 9.59375 -0.015625 C 8.832031 0.253906 7.976562 0.390625 7.03125 0.390625 C 6.082031 0.390625 5.222656 0.242188 4.453125 -0.046875 C 3.691406 -0.335938 3.035156 -0.75 2.484375 -1.28125 C 1.929688 -1.820312 1.503906 -2.472656 1.203125 -3.234375 C 0.898438 -4.003906 0.75 -4.867188 0.75 -5.828125 C 0.75 -6.773438 0.898438 -7.628906 1.203125 -8.390625 C 1.503906 -9.160156 1.929688 -9.8125 2.484375 -10.34375 C 3.035156 -10.882812 3.691406 -11.300781 4.453125 -11.59375 C 5.222656 -11.882812 6.082031 -12.03125 7.03125 -12.03125 C 7.976562 -12.03125 8.832031 -11.878906 9.59375 -11.578125 C 10.363281 -11.285156 11.023438 -10.867188 11.578125 -10.328125 C 12.128906 -9.796875 12.554688 -9.144531 12.859375 -8.375 C 13.160156 -7.601562 13.3125 -6.753906 13.3125 -5.828125 Z M 4.921875 -5.828125 C 4.921875 -4.859375 5.109375 -4.113281 5.484375 -3.59375 C 5.859375 -3.070312 6.382812 -2.8125 7.0625 -2.8125 C 7.726562 -2.8125 8.238281 -3.070312 8.59375 -3.59375 C 8.957031 -4.125 9.140625 -4.867188 9.140625 -5.828125 C 9.140625 -6.785156 8.957031 -7.523438 8.59375 -8.046875 C 8.226562 -8.566406 7.707031 -8.828125 7.03125 -8.828125 C 6.363281 -8.828125 5.84375 -8.566406 5.46875 -8.046875 C 5.101562 -7.523438 4.921875 -6.785156 4.921875 -5.828125 Z M 4.921875 -5.828125 "/></g></g></g><g fill="#ffffff" fill-opacity="1"><g transform="translate(287.674504, 203.594751)"><g><path d="M 8.640625 -7.390625 C 8.640625 -7.890625 8.5 -8.253906 8.21875 -8.484375 C 7.9375 -8.710938 7.554688 -8.828125 7.078125 -8.828125 C 6.753906 -8.828125 6.4375 -8.785156 6.125 -8.703125 C 5.8125 -8.628906 5.546875 -8.515625 5.328125 -8.359375 L 5.328125 -0.03125 C 5.171875 0.0195312 4.921875 0.0664062 4.578125 0.109375 C 4.234375 0.160156 3.875 0.1875 3.5 0.1875 C 3.144531 0.1875 2.828125 0.160156 2.546875 0.109375 C 2.273438 0.0664062 2.039062 -0.0234375 1.84375 -0.171875 C 1.65625 -0.316406 1.507812 -0.507812 1.40625 -0.75 C 1.300781 -1 1.25 -1.328125 1.25 -1.734375 L 1.25 -8.921875 C 1.25 -9.359375 1.335938 -9.710938 1.515625 -9.984375 C 1.703125 -10.253906 1.957031 -10.503906 2.28125 -10.734375 C 2.820312 -11.109375 3.503906 -11.414062 4.328125 -11.65625 C 5.148438 -11.90625 6.066406 -12.03125 7.078125 -12.03125 C 8.890625 -12.03125 10.28125 -11.628906 11.25 -10.828125 C 12.226562 -10.035156 12.71875 -8.9375 12.71875 -7.53125 L 12.71875 -0.03125 C 12.5625 0.0195312 12.3125 0.0664062 11.96875 0.109375 C 11.625 0.160156 11.265625 0.1875 10.890625 0.1875 C 10.546875 0.1875 10.234375 0.160156 9.953125 0.109375 C 9.671875 0.0664062 9.429688 -0.0234375 9.234375 -0.171875 C 9.046875 -0.316406 8.898438 -0.507812 8.796875 -0.75 C 8.691406 -1 8.640625 -1.328125 8.640625 -1.734375 Z M 8.640625 -7.390625 "/></g></g></g><g fill="#ffffff" fill-opacity="1"><g transform="translate(301.659652, 203.594751)"><g><path d="M 5.40625 -0.03125 C 5.226562 0.0078125 4.96875 0.0546875 4.625 0.109375 C 4.28125 0.160156 3.929688 0.1875 3.578125 0.1875 C 3.222656 0.1875 2.90625 0.160156 2.625 0.109375 C 2.34375 0.0664062 2.101562 -0.0234375 1.90625 -0.171875 C 1.71875 -0.316406 1.570312 -0.507812 1.46875 -0.75 C 1.363281 -1 1.3125 -1.328125 1.3125 -1.734375 L 1.3125 -15.640625 C 1.488281 -15.679688 1.75 -15.726562 2.09375 -15.78125 C 2.4375 -15.832031 2.785156 -15.859375 3.140625 -15.859375 C 3.492188 -15.859375 3.8125 -15.832031 4.09375 -15.78125 C 4.375 -15.738281 4.609375 -15.644531 4.796875 -15.5 C 4.992188 -15.351562 5.144531 -15.15625 5.25 -14.90625 C 5.351562 -14.664062 5.40625 -14.34375 5.40625 -13.9375 Z M 5.40625 -0.03125 "/></g></g></g><g fill="#ffffff" fill-opacity="1"><g transform="translate(308.376361, 203.594751)"><g><path d="M 1.15625 -14.90625 C 1.15625 -15.507812 1.359375 -16.019531 1.765625 -16.4375 C 2.171875 -16.851562 2.710938 -17.0625 3.390625 -17.0625 C 4.054688 -17.0625 4.59375 -16.851562 5 -16.4375 C 5.40625 -16.019531 5.609375 -15.507812 5.609375 -14.90625 C 5.609375 -14.289062 5.40625 -13.773438 5 -13.359375 C 4.59375 -12.953125 4.054688 -12.75 3.390625 -12.75 C 2.710938 -12.75 2.171875 -12.953125 1.765625 -13.359375 C 1.359375 -13.773438 1.15625 -14.289062 1.15625 -14.90625 Z M 5.421875 -0.03125 C 5.242188 0.0078125 4.984375 0.0546875 4.640625 0.109375 C 4.296875 0.160156 3.945312 0.1875 3.59375 0.1875 C 3.25 0.1875 2.9375 0.160156 2.65625 0.109375 C 2.375 0.0664062 2.132812 -0.0234375 1.9375 -0.171875 C 1.75 -0.316406 1.601562 -0.507812 1.5 -0.75 C 1.394531 -1 1.34375 -1.328125 1.34375 -1.734375 L 1.34375 -11.5 C 1.519531 -11.53125 1.78125 -11.570312 2.125 -11.625 C 2.46875 -11.6875 2.816406 -11.71875 3.171875 -11.71875 C 3.523438 -11.71875 3.835938 -11.691406 4.109375 -11.640625 C 4.390625 -11.585938 4.625 -11.488281 4.8125 -11.34375 C 5.007812 -11.207031 5.160156 -11.015625 5.265625 -10.765625 C 5.367188 -10.515625 5.421875 -10.191406 5.421875 -9.796875 Z M 5.421875 -0.03125 "/></g></g></g><g fill="#ffffff" fill-opacity="1"><g transform="translate(315.141043, 203.594751)"><g><path d="M 8.640625 -7.390625 C 8.640625 -7.890625 8.5 -8.253906 8.21875 -8.484375 C 7.9375 -8.710938 7.554688 -8.828125 7.078125 -8.828125 C 6.753906 -8.828125 6.4375 -8.785156 6.125 -8.703125 C 5.8125 -8.628906 5.546875 -8.515625 5.328125 -8.359375 L 5.328125 -0.03125 C 5.171875 0.0195312 4.921875 0.0664062 4.578125 0.109375 C 4.234375 0.160156 3.875 0.1875 3.5 0.1875 C 3.144531 0.1875 2.828125 0.160156 2.546875 0.109375 C 2.273438 0.0664062 2.039062 -0.0234375 1.84375 -0.171875 C 1.65625 -0.316406 1.507812 -0.507812 1.40625 -0.75 C 1.300781 -1 1.25 -1.328125 1.25 -1.734375 L 1.25 -8.921875 C 1.25 -9.359375 1.335938 -9.710938 1.515625 -9.984375 C 1.703125 -10.253906 1.957031 -10.503906 2.28125 -10.734375 C 2.820312 -11.109375 3.503906 -11.414062 4.328125 -11.65625 C 5.148438 -11.90625 6.066406 -12.03125 7.078125 -12.03125 C 8.890625 -12.03125 10.28125 -11.628906 11.25 -10.828125 C 12.226562 -10.035156 12.71875 -8.9375 12.71875 -7.53125 L 12.71875 -0.03125 C 12.5625 0.0195312 12.3125 0.0664062 11.96875 0.109375 C 11.625 0.160156 11.265625 0.1875 10.890625 0.1875 C 10.546875 0.1875 10.234375 0.160156 9.953125 0.109375 C 9.671875 0.0664062 9.429688 -0.0234375 9.234375 -0.171875 C 9.046875 -0.316406 8.898438 -0.507812 8.796875 -0.75 C 8.691406 -1 8.640625 -1.328125 8.640625 -1.734375 Z M 8.640625 -7.390625 "/></g></g></g><g fill="#ffffff" fill-opacity="1"><g transform="translate(329.126192, 203.594751)"><g><path d="M 7.421875 0.390625 C 6.472656 0.390625 5.59375 0.257812 4.78125 0 C 3.976562 -0.269531 3.273438 -0.664062 2.671875 -1.1875 C 2.078125 -1.71875 1.609375 -2.382812 1.265625 -3.1875 C 0.921875 -3.988281 0.75 -4.925781 0.75 -6 C 0.75 -7.050781 0.921875 -7.957031 1.265625 -8.71875 C 1.609375 -9.476562 2.054688 -10.101562 2.609375 -10.59375 C 3.171875 -11.082031 3.8125 -11.441406 4.53125 -11.671875 C 5.25 -11.910156 5.988281 -12.03125 6.75 -12.03125 C 7.59375 -12.03125 8.363281 -11.898438 9.0625 -11.640625 C 9.757812 -11.378906 10.359375 -11.023438 10.859375 -10.578125 C 11.359375 -10.128906 11.75 -9.59375 12.03125 -8.96875 C 12.3125 -8.351562 12.453125 -7.675781 12.453125 -6.9375 C 12.453125 -6.394531 12.300781 -5.976562 12 -5.6875 C 11.695312 -5.394531 11.273438 -5.210938 10.734375 -5.140625 L 4.796875 -4.25 C 4.972656 -3.71875 5.332031 -3.316406 5.875 -3.046875 C 6.425781 -2.785156 7.050781 -2.65625 7.75 -2.65625 C 8.40625 -2.65625 9.023438 -2.738281 9.609375 -2.90625 C 10.191406 -3.082031 10.671875 -3.28125 11.046875 -3.5 C 11.296875 -3.34375 11.507812 -3.117188 11.6875 -2.828125 C 11.863281 -2.546875 11.953125 -2.242188 11.953125 -1.921875 C 11.953125 -1.203125 11.613281 -0.664062 10.9375 -0.3125 C 10.425781 -0.0390625 9.847656 0.140625 9.203125 0.234375 C 8.566406 0.335938 7.972656 0.390625 7.421875 0.390625 Z M 6.75 -9.046875 C 6.363281 -9.046875 6.03125 -8.976562 5.75 -8.84375 C 5.46875 -8.71875 5.238281 -8.554688 5.0625 -8.359375 C 4.882812 -8.160156 4.75 -7.9375 4.65625 -7.6875 C 4.570312 -7.4375 4.523438 -7.1875 4.515625 -6.9375 L 8.609375 -7.609375 C 8.566406 -7.929688 8.390625 -8.25 8.078125 -8.5625 C 7.773438 -8.882812 7.332031 -9.046875 6.75 -9.046875 Z M 6.75 -9.046875 "/></g></g></g></svg>