<svg xmlns="http://www.w3.org/2000/svg" xmlns:xlink="http://www.w3.org/1999/xlink" width="500" zoomAndPan="magnify" viewBox="0 0 375 374.999991" height="500" preserveAspectRatio="xMidYMid meet" version="1.0"><defs><g/><clipPath id="9c0e04ce5a"><path d="M 115.007812 125.492188 L 265.007812 125.492188 L 265.007812 204.992188 L 115.007812 204.992188 Z M 115.007812 125.492188 " clip-rule="nonzero"/></clipPath><clipPath id="8801ea716d"><path d="M 215.566406 120.859375 L 259.816406 120.859375 L 259.816406 165.109375 L 215.566406 165.109375 Z M 215.566406 120.859375 " clip-rule="nonzero"/></clipPath></defs><g clip-path="url(#9c0e04ce5a)"><path fill="#a6a6a6" d="M 237.558594 150.121094 C 235.070312 150.121094 232.664062 150.457031 230.371094 151.078125 C 225.257812 136.207031 211.144531 125.519531 194.523438 125.519531 C 178.757812 125.519531 165.242188 135.140625 159.527344 148.824219 C 157.492188 148.179688 155.324219 147.828125 153.074219 147.828125 C 141.292969 147.828125 131.742188 157.371094 131.742188 169.140625 C 131.742188 169.15625 131.742188 169.167969 131.742188 169.183594 C 122.398438 169.789062 115.007812 177.546875 115.007812 187.035156 C 115.007812 196.917969 123.027344 204.929688 132.921875 204.929688 C 133.195312 204.929688 133.46875 204.917969 133.738281 204.90625 L 133.738281 204.929688 L 133.878906 204.902344 C 134 204.894531 134.121094 204.882812 134.246094 204.875 L 235.453125 204.875 C 236.148438 204.925781 236.847656 204.960938 237.558594 204.960938 C 252.71875 204.960938 265.007812 192.6875 265.007812 177.542969 C 265.007812 162.398438 252.71875 150.121094 237.558594 150.121094 Z M 237.558594 150.121094 " fill-opacity="1" fill-rule="nonzero"/></g><g clip-path="url(#8801ea716d)"><path fill="#353434" d="M 259.824219 142.992188 C 259.824219 155.210938 249.917969 165.117188 237.695312 165.117188 C 225.476562 165.117188 215.570312 155.210938 215.570312 142.992188 C 215.570312 130.769531 225.476562 120.863281 237.695312 120.863281 C 249.917969 120.867188 259.824219 130.769531 259.824219 142.992188 " fill-opacity="1" fill-rule="nonzero"/></g><path fill="#ffffff" d="M 232.804688 146.371094 L 228.308594 142.339844 L 229.792969 141.953125 L 228.414062 138.8125 L 231.558594 140.179688 L 231.941406 138.691406 L 235.335938 142.441406 L 233.898438 135.667969 L 235.84375 136.804688 L 237.671875 132.109375 L 239.523438 136.796875 L 241.460938 135.652344 L 240.054688 142.429688 L 243.433594 138.667969 L 243.820312 140.152344 L 246.960938 138.773438 L 245.597656 141.917969 L 247.082031 142.300781 L 242.605469 146.351562 C 242.605469 146.351562 241.402344 147.757812 242.613281 149.160156 L 238.039062 148.359375 L 238.386719 153.867188 L 237.054688 153.871094 L 237.378906 148.359375 L 232.808594 149.179688 C 234.011719 147.773438 232.804688 146.371094 232.804688 146.371094 M 249.054688 160.253906 L 248.984375 125.679688 C 245.738281 123.558594 241.867188 122.328125 237.703125 122.324219 L 237.691406 122.324219 C 233.496094 122.328125 229.597656 123.578125 226.335938 125.726562 L 226.414062 160.304688 C 229.65625 162.421875 233.527344 163.65625 237.691406 163.65625 L 237.707031 163.65625 C 241.898438 163.65625 245.796875 162.402344 249.054688 160.253906 " fill-opacity="1" fill-rule="nonzero"/><path fill="#ed2026" d="M 217.03125 142.992188 C 217.03125 150.238281 220.765625 156.617188 226.414062 160.304688 L 226.335938 125.726562 C 220.730469 129.421875 217.03125 135.773438 217.03125 142.992188 " fill-opacity="1" fill-rule="nonzero"/><path fill="#ed2026" d="M 258.363281 142.992188 C 258.363281 135.742188 254.628906 129.367188 248.984375 125.679688 L 249.054688 160.253906 C 254.660156 156.558594 258.363281 150.207031 258.363281 142.992188 " fill-opacity="1" fill-rule="nonzero"/><path fill="#ed2026" d="M 237.378906 148.359375 L 237.054688 153.871094 L 238.386719 153.867188 L 238.039062 148.359375 L 242.613281 149.160156 C 241.402344 147.757812 242.605469 146.351562 242.605469 146.351562 L 247.082031 142.300781 L 245.597656 141.917969 L 246.960938 138.773438 L 243.820312 140.152344 L 243.433594 138.667969 L 240.054688 142.429688 L 241.460938 135.652344 L 239.523438 136.796875 L 237.671875 132.109375 L 235.84375 136.804688 L 233.898438 135.667969 L 235.335938 142.441406 L 231.941406 138.691406 L 231.558594 140.179688 L 228.414062 138.8125 L 229.792969 141.953125 L 228.308594 142.339844 L 232.804688 146.371094 C 232.804688 146.371094 234.011719 147.773438 232.808594 149.179688 L 237.378906 148.359375 " fill-opacity="1" fill-rule="nonzero"/><path fill="#234974" d="M 245.132812 143.210938 C 245.132812 143.351562 245.128906 143.492188 245.121094 143.632812 C 245.128906 143.492188 245.132812 143.351562 245.132812 143.210938 " fill-opacity="1" fill-rule="nonzero"/><path fill="#234974" d="M 245.121094 143.648438 C 245.109375 143.78125 245.101562 143.917969 245.085938 144.050781 C 245.101562 143.917969 245.109375 143.78125 245.121094 143.648438 " fill-opacity="1" fill-rule="nonzero"/><path fill="#234974" d="M 245.121094 142.824219 C 245.128906 142.949219 245.132812 143.082031 245.132812 143.210938 C 245.132812 143.082031 245.128906 142.949219 245.121094 142.824219 " fill-opacity="1" fill-rule="nonzero"/><path fill="#234974" d="M 230.78125 140.480469 C 230.820312 140.378906 230.863281 140.277344 230.90625 140.179688 C 230.863281 140.277344 230.820312 140.378906 230.78125 140.480469 " fill-opacity="1" fill-rule="nonzero"/><path fill="#282b2c" d="M 238.628906 163.636719 L 238.628906 163.636719 M 238.660156 163.632812 L 238.664062 163.632812 L 238.660156 163.632812 M 238.675781 163.632812 L 238.679688 163.632812 L 238.675781 163.632812 M 238.6875 163.632812 C 238.695312 163.632812 238.699219 163.632812 238.703125 163.632812 C 238.699219 163.632812 238.695312 163.632812 238.6875 163.632812 M 238.707031 163.632812 L 238.71875 163.632812 L 238.707031 163.632812 M 238.71875 163.632812 C 242.527344 163.445312 246.0625 162.230469 249.054688 160.253906 C 254.34375 156.769531 257.9375 150.917969 258.328125 144.207031 C 257.714844 154.714844 249.253906 163.117188 238.71875 163.632812 M 235.664062 163.558594 C 235.660156 163.558594 235.660156 163.558594 235.65625 163.554688 C 235.660156 163.558594 235.660156 163.558594 235.664062 163.558594 M 235.652344 163.554688 C 229.21875 162.925781 223.648438 159.339844 220.320312 154.175781 C 221.894531 156.621094 223.976562 158.714844 226.414062 160.304688 L 226.40625 157.84375 L 226.414062 160.304688 C 229.121094 162.074219 232.265625 163.222656 235.652344 163.554688 " fill-opacity="1" fill-rule="nonzero"/><path fill="#b0c0c8" d="M 237.695312 163.65625 C 237.011719 163.65625 236.332031 163.625 235.664062 163.558594 C 235.660156 163.558594 235.660156 163.558594 235.65625 163.554688 L 235.652344 163.554688 C 232.265625 163.222656 229.121094 162.074219 226.414062 160.304688 L 226.40625 157.84375 C 228.71875 158.738281 231.230469 159.226562 233.855469 159.226562 C 239.859375 159.226562 245.265625 156.667969 249.039062 152.582031 L 249.054688 160.253906 C 246.0625 162.230469 242.527344 163.445312 238.71875 163.632812 L 238.703125 163.632812 C 238.699219 163.632812 238.695312 163.632812 238.6875 163.632812 L 238.660156 163.632812 C 238.648438 163.636719 238.640625 163.636719 238.628906 163.636719 C 238.320312 163.648438 238.007812 163.65625 237.695312 163.65625 " fill-opacity="1" fill-rule="nonzero"/><path fill="#282b2c" d="M 258.328125 144.207031 C 258.328125 144.199219 258.328125 144.1875 258.328125 144.179688 C 258.328125 144.1875 258.328125 144.199219 258.328125 144.207031 M 258.328125 144.175781 C 258.328125 144.171875 258.328125 144.164062 258.332031 144.15625 C 258.328125 144.164062 258.328125 144.171875 258.328125 144.175781 M 258.332031 144.15625 L 258.332031 144.148438 L 258.332031 144.15625 M 258.332031 144.144531 L 258.332031 144.132812 L 258.332031 144.144531 M 258.332031 144.125 L 258.332031 144.117188 L 258.332031 144.125 M 258.332031 144.109375 C 258.332031 144.105469 258.332031 144.101562 258.332031 144.101562 C 258.332031 144.101562 258.332031 144.105469 258.332031 144.109375 M 258.332031 144.089844 L 258.332031 144.085938 L 258.332031 144.089844 M 258.335938 144.070312 L 258.335938 144.070312 M 258.335938 144.058594 L 258.335938 144.050781 L 258.335938 144.058594 M 258.335938 144.039062 L 258.335938 144.035156 L 258.335938 144.039062 M 258.339844 144.007812 L 258.339844 144.003906 L 258.339844 144.007812 M 258.363281 143.042969 L 258.363281 143.039062 L 258.363281 143.042969 M 258.363281 143.027344 L 258.363281 143.023438 L 258.363281 143.027344 M 258.363281 143.007812 L 258.363281 143.007812 M 258.363281 142.992188 L 258.363281 142.980469 L 258.363281 142.992188 M 258.363281 142.980469 L 258.363281 142.96875 L 258.363281 142.980469 M 258.363281 142.96875 L 258.363281 142.960938 L 258.363281 142.96875 M 258.363281 142.957031 L 258.363281 142.949219 L 258.363281 142.957031 M 258.363281 142.949219 C 258.351562 136.734375 255.59375 131.160156 251.238281 127.382812 C 251.238281 127.378906 251.234375 127.378906 251.234375 127.378906 C 255.589844 131.160156 258.351562 136.730469 258.363281 142.949219 " fill-opacity="1" fill-rule="nonzero"/><path fill="#a91b1f" d="M 226.414062 160.304688 C 223.976562 158.714844 221.894531 156.621094 220.316406 154.175781 C 222.105469 155.726562 224.160156 156.976562 226.40625 157.84375 L 226.414062 160.304688 " fill-opacity="1" fill-rule="nonzero"/><path fill="#a91b1f" d="M 249.054688 160.253906 L 249.039062 152.582031 C 252.441406 148.898438 254.523438 143.972656 254.523438 138.5625 C 254.523438 134.441406 253.316406 130.605469 251.238281 127.382812 C 255.59375 131.160156 258.351562 136.734375 258.363281 142.949219 L 258.363281 143.089844 C 258.359375 143.386719 258.351562 143.679688 258.339844 143.972656 C 258.339844 143.984375 258.339844 143.992188 258.339844 144.003906 L 258.339844 144.007812 C 258.335938 144.015625 258.335938 144.027344 258.335938 144.035156 L 258.335938 144.039062 C 258.335938 144.042969 258.335938 144.050781 258.335938 144.050781 L 258.335938 144.070312 C 258.332031 144.078125 258.332031 144.082031 258.332031 144.085938 L 258.332031 144.101562 C 258.332031 144.101562 258.332031 144.105469 258.332031 144.109375 L 258.332031 144.125 C 258.332031 144.125 258.332031 144.128906 258.332031 144.132812 L 258.332031 144.15625 C 258.328125 144.164062 258.328125 144.171875 258.328125 144.175781 L 258.328125 144.179688 C 258.328125 144.1875 258.328125 144.199219 258.328125 144.207031 C 257.9375 150.917969 254.34375 156.769531 249.054688 160.253906 " fill-opacity="1" fill-rule="nonzero"/><path fill="#ffffff" d="M 226.347656 130.179688 L 226.339844 126.5625 C 230.660156 123.828125 235.710938 123.121094 238.417969 123.121094 C 239.492188 123.121094 240.199219 123.234375 240.335938 123.375 C 240.886719 123.921875 232.511719 124.714844 226.347656 130.179688 " fill-opacity="1" fill-rule="nonzero"/><path fill="#f25b49" d="M 217.90625 145.882812 C 217.886719 145.882812 217.871094 145.875 217.851562 145.859375 C 217.277344 145.285156 217.179688 135.117188 223.390625 128.910156 C 224.300781 127.996094 225.296875 127.222656 226.339844 126.5625 L 226.347656 130.179688 C 226.050781 130.441406 225.761719 130.714844 225.476562 131 C 219.453125 137.019531 218.484375 145.882812 217.90625 145.882812 " fill-opacity="1" fill-rule="nonzero"/><g fill="#b91c1c" fill-opacity="1"><g transform="translate(125.332028, 231.132186)"><g><path d="M 2.078125 -16.421875 C 2.078125 -17.335938 2.34375 -18.0625 2.875 -18.59375 C 3.414062 -19.125 4.144531 -19.390625 5.0625 -19.390625 L 15.609375 -19.390625 C 15.765625 -19.160156 15.898438 -18.851562 16.015625 -18.46875 C 16.128906 -18.082031 16.1875 -17.675781 16.1875 -17.25 C 16.1875 -16.4375 16.007812 -15.859375 15.65625 -15.515625 C 15.3125 -15.179688 14.847656 -15.015625 14.265625 -15.015625 L 7.515625 -15.015625 L 7.515625 -12.03125 L 14.71875 -12.03125 C 14.863281 -11.800781 14.992188 -11.5 15.109375 -11.125 C 15.234375 -10.75 15.296875 -10.347656 15.296875 -9.921875 C 15.296875 -9.109375 15.125 -8.53125 14.78125 -8.1875 C 14.4375 -7.851562 13.976562 -7.6875 13.40625 -7.6875 L 7.515625 -7.6875 L 7.515625 -4.3125 L 15.75 -4.3125 C 15.894531 -4.082031 16.023438 -3.773438 16.140625 -3.390625 C 16.253906 -3.003906 16.3125 -2.597656 16.3125 -2.171875 C 16.3125 -1.359375 16.132812 -0.773438 15.78125 -0.421875 C 15.4375 -0.078125 14.976562 0.09375 14.40625 0.09375 L 5.0625 0.09375 C 4.144531 0.09375 3.414062 -0.171875 2.875 -0.703125 C 2.34375 -1.234375 2.078125 -1.957031 2.078125 -2.875 Z M 2.078125 -16.421875 "/></g></g></g><g fill="#b91c1c" fill-opacity="1"><g transform="translate(142.863723, 231.132186)"><g><path d="M 2.078125 -16.421875 C 2.078125 -17.335938 2.34375 -18.0625 2.875 -18.59375 C 3.414062 -19.125 4.144531 -19.390625 5.0625 -19.390625 L 15.609375 -19.390625 C 15.765625 -19.160156 15.898438 -18.851562 16.015625 -18.46875 C 16.128906 -18.082031 16.1875 -17.675781 16.1875 -17.25 C 16.1875 -16.4375 16.007812 -15.859375 15.65625 -15.515625 C 15.3125 -15.179688 14.847656 -15.015625 14.265625 -15.015625 L 7.515625 -15.015625 L 7.515625 -12.03125 L 14.71875 -12.03125 C 14.863281 -11.800781 14.992188 -11.5 15.109375 -11.125 C 15.234375 -10.75 15.296875 -10.347656 15.296875 -9.921875 C 15.296875 -9.109375 15.125 -8.53125 14.78125 -8.1875 C 14.4375 -7.851562 13.976562 -7.6875 13.40625 -7.6875 L 7.515625 -7.6875 L 7.515625 -4.3125 L 15.75 -4.3125 C 15.894531 -4.082031 16.023438 -3.773438 16.140625 -3.390625 C 16.253906 -3.003906 16.3125 -2.597656 16.3125 -2.171875 C 16.3125 -1.359375 16.132812 -0.773438 15.78125 -0.421875 C 15.4375 -0.078125 14.976562 0.09375 14.40625 0.09375 L 5.0625 0.09375 C 4.144531 0.09375 3.414062 -0.171875 2.875 -0.703125 C 2.34375 -1.234375 2.078125 -1.957031 2.078125 -2.875 Z M 2.078125 -16.421875 "/></g></g></g><g fill="#b91c1c" fill-opacity="1"><g transform="translate(160.395418, 231.132186)"><g/></g></g><g fill="#b91c1c" fill-opacity="1"><g transform="translate(166.793844, 231.132186)"><g><path d="M 7.640625 -4.15625 C 7.878906 -4.113281 8.171875 -4.078125 8.515625 -4.046875 C 8.859375 -4.015625 9.175781 -4 9.46875 -4 C 10.195312 -4 10.863281 -4.101562 11.46875 -4.3125 C 12.082031 -4.53125 12.609375 -4.863281 13.046875 -5.3125 C 13.484375 -5.757812 13.820312 -6.335938 14.0625 -7.046875 C 14.3125 -7.765625 14.4375 -8.625 14.4375 -9.625 C 14.4375 -11.550781 13.988281 -13 13.09375 -13.96875 C 12.195312 -14.9375 11 -15.421875 9.5 -15.421875 C 9.207031 -15.421875 8.90625 -15.410156 8.59375 -15.390625 C 8.28125 -15.367188 7.960938 -15.335938 7.640625 -15.296875 Z M 9.4375 0.515625 C 9.070312 0.515625 8.65625 0.503906 8.1875 0.484375 C 7.71875 0.460938 7.234375 0.414062 6.734375 0.34375 C 6.234375 0.28125 5.734375 0.203125 5.234375 0.109375 C 4.734375 0.015625 4.269531 -0.113281 3.84375 -0.28125 C 2.664062 -0.726562 2.078125 -1.507812 2.078125 -2.625 L 2.078125 -17.5625 C 2.078125 -18.007812 2.195312 -18.351562 2.4375 -18.59375 C 2.6875 -18.84375 3.023438 -19.046875 3.453125 -19.203125 C 4.367188 -19.492188 5.335938 -19.6875 6.359375 -19.78125 C 7.390625 -19.882812 8.3125 -19.9375 9.125 -19.9375 C 10.78125 -19.9375 12.285156 -19.734375 13.640625 -19.328125 C 15.003906 -18.921875 16.171875 -18.296875 17.140625 -17.453125 C 18.109375 -16.609375 18.859375 -15.546875 19.390625 -14.265625 C 19.921875 -12.992188 20.1875 -11.484375 20.1875 -9.734375 C 20.1875 -8.023438 19.929688 -6.535156 19.421875 -5.265625 C 18.910156 -3.992188 18.179688 -2.925781 17.234375 -2.0625 C 16.285156 -1.195312 15.148438 -0.550781 13.828125 -0.125 C 12.503906 0.300781 11.039062 0.515625 9.4375 0.515625 Z M 9.4375 0.515625 "/></g></g></g><g fill="#b91c1c" fill-opacity="1"><g transform="translate(188.100601, 231.132186)"><g><path d="M 7.109375 -0.03125 C 6.890625 0.03125 6.550781 0.09375 6.09375 0.15625 C 5.632812 0.21875 5.160156 0.25 4.671875 0.25 C 4.203125 0.25 3.78125 0.21875 3.40625 0.15625 C 3.03125 0.09375 2.710938 -0.03125 2.453125 -0.21875 C 2.203125 -0.414062 2.003906 -0.675781 1.859375 -1 C 1.722656 -1.332031 1.65625 -1.765625 1.65625 -2.296875 L 1.65625 -11.90625 C 1.65625 -12.394531 1.742188 -12.816406 1.921875 -13.171875 C 2.109375 -13.523438 2.375 -13.835938 2.71875 -14.109375 C 3.0625 -14.390625 3.484375 -14.640625 3.984375 -14.859375 C 4.484375 -15.085938 5.019531 -15.285156 5.59375 -15.453125 C 6.175781 -15.628906 6.773438 -15.765625 7.390625 -15.859375 C 8.003906 -15.953125 8.625 -16 9.25 -16 C 10.269531 -16 11.078125 -15.800781 11.671875 -15.40625 C 12.273438 -15.007812 12.578125 -14.363281 12.578125 -13.46875 C 12.578125 -13.175781 12.53125 -12.882812 12.4375 -12.59375 C 12.351562 -12.300781 12.25 -12.039062 12.125 -11.8125 C 11.675781 -11.8125 11.21875 -11.789062 10.75 -11.75 C 10.28125 -11.707031 9.820312 -11.640625 9.375 -11.546875 C 8.925781 -11.460938 8.503906 -11.375 8.109375 -11.28125 C 7.710938 -11.1875 7.378906 -11.070312 7.109375 -10.9375 Z M 7.109375 -0.03125 "/></g></g></g><g fill="#b91c1c" fill-opacity="1"><g transform="translate(201.24937, 231.132186)"><g><path d="M 8.3125 -3.453125 C 8.675781 -3.453125 9.078125 -3.488281 9.515625 -3.5625 C 9.953125 -3.644531 10.28125 -3.75 10.5 -3.875 L 10.5 -6.4375 L 8.1875 -6.234375 C 7.59375 -6.191406 7.101562 -6.0625 6.71875 -5.84375 C 6.332031 -5.632812 6.140625 -5.316406 6.140625 -4.890625 C 6.140625 -4.460938 6.304688 -4.113281 6.640625 -3.84375 C 6.972656 -3.582031 7.53125 -3.453125 8.3125 -3.453125 Z M 8.0625 -16.03125 C 9.21875 -16.03125 10.269531 -15.910156 11.21875 -15.671875 C 12.164062 -15.441406 12.972656 -15.085938 13.640625 -14.609375 C 14.316406 -14.128906 14.835938 -13.519531 15.203125 -12.78125 C 15.566406 -12.050781 15.75 -11.179688 15.75 -10.171875 L 15.75 -3.015625 C 15.75 -2.453125 15.59375 -1.992188 15.28125 -1.640625 C 14.96875 -1.296875 14.597656 -0.992188 14.171875 -0.734375 C 12.785156 0.0976562 10.832031 0.515625 8.3125 0.515625 C 7.1875 0.515625 6.171875 0.40625 5.265625 0.1875 C 4.359375 -0.0195312 3.578125 -0.335938 2.921875 -0.765625 C 2.273438 -1.191406 1.773438 -1.734375 1.421875 -2.390625 C 1.066406 -3.054688 0.890625 -3.828125 0.890625 -4.703125 C 0.890625 -6.171875 1.328125 -7.300781 2.203125 -8.09375 C 3.078125 -8.882812 4.429688 -9.375 6.265625 -9.5625 L 10.46875 -10.015625 L 10.46875 -10.234375 C 10.46875 -10.859375 10.191406 -11.300781 9.640625 -11.5625 C 9.097656 -11.832031 8.316406 -11.96875 7.296875 -11.96875 C 6.484375 -11.96875 5.691406 -11.878906 4.921875 -11.703125 C 4.160156 -11.535156 3.46875 -11.328125 2.84375 -11.078125 C 2.570312 -11.265625 2.335938 -11.554688 2.140625 -11.953125 C 1.953125 -12.347656 1.859375 -12.757812 1.859375 -13.1875 C 1.859375 -13.738281 1.988281 -14.179688 2.25 -14.515625 C 2.519531 -14.847656 2.929688 -15.128906 3.484375 -15.359375 C 4.109375 -15.597656 4.835938 -15.769531 5.671875 -15.875 C 6.515625 -15.976562 7.3125 -16.03125 8.0625 -16.03125 Z M 8.0625 -16.03125 "/></g></g></g><g fill="#b91c1c" fill-opacity="1"><g transform="translate(218.653097, 231.132186)"><g><path d="M 10.53125 -0.484375 C 10.226562 -0.222656 9.820312 -0.015625 9.3125 0.140625 C 8.800781 0.304688 8.191406 0.390625 7.484375 0.390625 C 6.609375 0.390625 5.847656 0.265625 5.203125 0.015625 C 4.566406 -0.234375 4.144531 -0.582031 3.9375 -1.03125 C 3.695312 -1.539062 3.421875 -2.347656 3.109375 -3.453125 C 2.804688 -4.566406 2.503906 -5.785156 2.203125 -7.109375 C 1.910156 -8.429688 1.628906 -9.773438 1.359375 -11.140625 C 1.085938 -12.503906 0.878906 -13.707031 0.734375 -14.75 C 1.035156 -15.050781 1.4375 -15.3125 1.9375 -15.53125 C 2.4375 -15.757812 2.984375 -15.875 3.578125 -15.875 C 4.328125 -15.875 4.941406 -15.707031 5.421875 -15.375 C 5.898438 -15.039062 6.191406 -14.46875 6.296875 -13.65625 C 6.515625 -12.039062 6.695312 -10.703125 6.84375 -9.640625 C 7 -8.585938 7.125 -7.722656 7.21875 -7.046875 C 7.3125 -6.378906 7.382812 -5.867188 7.4375 -5.515625 C 7.488281 -5.160156 7.535156 -4.878906 7.578125 -4.671875 L 7.71875 -4.671875 C 7.78125 -5.015625 7.890625 -5.507812 8.046875 -6.15625 C 8.203125 -6.8125 8.382812 -7.550781 8.59375 -8.375 C 8.8125 -9.207031 9.035156 -10.109375 9.265625 -11.078125 C 9.503906 -12.054688 9.742188 -13.023438 9.984375 -13.984375 C 10.410156 -14.222656 10.832031 -14.40625 11.25 -14.53125 C 11.664062 -14.65625 12.179688 -14.71875 12.796875 -14.71875 C 13.546875 -14.71875 14.1875 -14.597656 14.71875 -14.359375 C 15.25 -14.128906 15.59375 -13.769531 15.75 -13.28125 C 16 -12.34375 16.238281 -11.429688 16.46875 -10.546875 C 16.707031 -9.660156 16.921875 -8.835938 17.109375 -8.078125 C 17.304688 -7.316406 17.476562 -6.644531 17.625 -6.0625 C 17.78125 -5.476562 17.890625 -5.015625 17.953125 -4.671875 L 18.109375 -4.671875 C 18.347656 -6.316406 18.578125 -8.023438 18.796875 -9.796875 C 19.023438 -11.566406 19.234375 -13.367188 19.421875 -15.203125 C 19.804688 -15.429688 20.210938 -15.597656 20.640625 -15.703125 C 21.066406 -15.816406 21.492188 -15.875 21.921875 -15.875 C 22.671875 -15.875 23.289062 -15.710938 23.78125 -15.390625 C 24.269531 -15.066406 24.515625 -14.515625 24.515625 -13.734375 C 24.515625 -13.390625 24.457031 -12.875 24.34375 -12.1875 C 24.238281 -11.507812 24.101562 -10.742188 23.9375 -9.890625 C 23.769531 -9.035156 23.570312 -8.140625 23.34375 -7.203125 C 23.125 -6.265625 22.898438 -5.359375 22.671875 -4.484375 C 22.453125 -3.609375 22.238281 -2.816406 22.03125 -2.109375 C 21.832031 -1.410156 21.65625 -0.867188 21.5 -0.484375 C 21.207031 -0.222656 20.75 -0.015625 20.125 0.140625 C 19.507812 0.304688 18.847656 0.390625 18.140625 0.390625 C 16.347656 0.390625 15.289062 -0.0546875 14.96875 -0.953125 C 14.84375 -1.335938 14.679688 -1.820312 14.484375 -2.40625 C 14.296875 -3 14.09375 -3.644531 13.875 -4.34375 C 13.664062 -5.050781 13.460938 -5.785156 13.265625 -6.546875 C 13.078125 -7.304688 12.921875 -8.035156 12.796875 -8.734375 C 12.648438 -7.984375 12.46875 -7.207031 12.25 -6.40625 C 12.039062 -5.613281 11.820312 -4.835938 11.59375 -4.078125 C 11.375 -3.316406 11.164062 -2.625 10.96875 -2 C 10.78125 -1.375 10.632812 -0.867188 10.53125 -0.484375 Z M 10.53125 -0.484375 "/></g></g></g><g fill="#b91c1c" fill-opacity="1"><g transform="translate(243.958878, 231.132186)"><g><path d="M 14.78125 -4.640625 C 14.78125 -3.015625 14.171875 -1.742188 12.953125 -0.828125 C 11.742188 0.0859375 9.953125 0.546875 7.578125 0.546875 C 6.679688 0.546875 5.847656 0.476562 5.078125 0.34375 C 4.316406 0.21875 3.660156 0.0234375 3.109375 -0.234375 C 2.566406 -0.503906 2.140625 -0.84375 1.828125 -1.25 C 1.523438 -1.65625 1.375 -2.132812 1.375 -2.6875 C 1.375 -3.195312 1.476562 -3.628906 1.6875 -3.984375 C 1.90625 -4.335938 2.164062 -4.628906 2.46875 -4.859375 C 3.082031 -4.523438 3.789062 -4.222656 4.59375 -3.953125 C 5.394531 -3.679688 6.316406 -3.546875 7.359375 -3.546875 C 8.023438 -3.546875 8.53125 -3.640625 8.875 -3.828125 C 9.226562 -4.023438 9.40625 -4.285156 9.40625 -4.609375 C 9.40625 -4.910156 9.273438 -5.144531 9.015625 -5.3125 C 8.765625 -5.476562 8.34375 -5.617188 7.75 -5.734375 L 6.78125 -5.921875 C 4.925781 -6.285156 3.546875 -6.851562 2.640625 -7.625 C 1.734375 -8.40625 1.28125 -9.519531 1.28125 -10.96875 C 1.28125 -11.757812 1.445312 -12.472656 1.78125 -13.109375 C 2.125 -13.753906 2.601562 -14.289062 3.21875 -14.71875 C 3.84375 -15.144531 4.585938 -15.472656 5.453125 -15.703125 C 6.316406 -15.941406 7.269531 -16.0625 8.3125 -16.0625 C 9.101562 -16.0625 9.84375 -16.003906 10.53125 -15.890625 C 11.226562 -15.773438 11.832031 -15.597656 12.34375 -15.359375 C 12.863281 -15.128906 13.269531 -14.828125 13.5625 -14.453125 C 13.863281 -14.078125 14.015625 -13.632812 14.015625 -13.125 C 14.015625 -12.632812 13.921875 -12.210938 13.734375 -11.859375 C 13.554688 -11.503906 13.332031 -11.207031 13.0625 -10.96875 C 12.882812 -11.082031 12.625 -11.195312 12.28125 -11.3125 C 11.945312 -11.425781 11.578125 -11.53125 11.171875 -11.625 C 10.765625 -11.726562 10.351562 -11.8125 9.9375 -11.875 C 9.519531 -11.9375 9.140625 -11.96875 8.796875 -11.96875 C 8.097656 -11.96875 7.554688 -11.882812 7.171875 -11.71875 C 6.785156 -11.5625 6.59375 -11.3125 6.59375 -10.96875 C 6.59375 -10.738281 6.695312 -10.546875 6.90625 -10.390625 C 7.125 -10.242188 7.53125 -10.109375 8.125 -9.984375 L 9.125 -9.765625 C 11.164062 -9.296875 12.617188 -8.648438 13.484375 -7.828125 C 14.347656 -7.003906 14.78125 -5.941406 14.78125 -4.640625 Z M 14.78125 -4.640625 "/></g></g></g><g fill="#b91c1c" fill-opacity="1"><g transform="translate(190.019524, 254.182205)"><g><path d="M 0.53125 -1.9375 C 0.53125 -2.613281 0.738281 -3.175781 1.15625 -3.625 C 1.570312 -4.070312 2.140625 -4.296875 2.859375 -4.296875 C 3.578125 -4.296875 4.144531 -4.070312 4.5625 -3.625 C 4.976562 -3.175781 5.1875 -2.613281 5.1875 -1.9375 C 5.1875 -1.269531 4.976562 -0.710938 4.5625 -0.265625 C 4.144531 0.179688 3.578125 0.40625 2.859375 0.40625 C 2.140625 0.40625 1.570312 0.179688 1.15625 -0.265625 C 0.738281 -0.710938 0.53125 -1.269531 0.53125 -1.9375 Z M 0.53125 -1.9375 "/></g></g></g><g fill="#b91c1c" fill-opacity="1"><g transform="translate(195.728729, 254.182205)"><g><path d="M 13.3125 -5.828125 C 13.3125 -4.835938 13.160156 -3.953125 12.859375 -3.171875 C 12.554688 -2.398438 12.128906 -1.75 11.578125 -1.21875 C 11.023438 -0.695312 10.363281 -0.296875 9.59375 -0.015625 C 8.832031 0.253906 7.976562 0.390625 7.03125 0.390625 C 6.082031 0.390625 5.222656 0.242188 4.453125 -0.046875 C 3.691406 -0.335938 3.035156 -0.75 2.484375 -1.28125 C 1.929688 -1.820312 1.503906 -2.472656 1.203125 -3.234375 C 0.898438 -4.003906 0.75 -4.867188 0.75 -5.828125 C 0.75 -6.773438 0.898438 -7.628906 1.203125 -8.390625 C 1.503906 -9.160156 1.929688 -9.8125 2.484375 -10.34375 C 3.035156 -10.882812 3.691406 -11.300781 4.453125 -11.59375 C 5.222656 -11.882812 6.082031 -12.03125 7.03125 -12.03125 C 7.976562 -12.03125 8.832031 -11.878906 9.59375 -11.578125 C 10.363281 -11.285156 11.023438 -10.867188 11.578125 -10.328125 C 12.128906 -9.796875 12.554688 -9.144531 12.859375 -8.375 C 13.160156 -7.601562 13.3125 -6.753906 13.3125 -5.828125 Z M 4.921875 -5.828125 C 4.921875 -4.859375 5.109375 -4.113281 5.484375 -3.59375 C 5.859375 -3.070312 6.382812 -2.8125 7.0625 -2.8125 C 7.726562 -2.8125 8.238281 -3.070312 8.59375 -3.59375 C 8.957031 -4.125 9.140625 -4.867188 9.140625 -5.828125 C 9.140625 -6.785156 8.957031 -7.523438 8.59375 -8.046875 C 8.226562 -8.566406 7.707031 -8.828125 7.03125 -8.828125 C 6.363281 -8.828125 5.84375 -8.566406 5.46875 -8.046875 C 5.101562 -7.523438 4.921875 -6.785156 4.921875 -5.828125 Z M 4.921875 -5.828125 "/></g></g></g><g fill="#b91c1c" fill-opacity="1"><g transform="translate(209.785838, 254.182205)"><g><path d="M 8.640625 -7.390625 C 8.640625 -7.890625 8.5 -8.253906 8.21875 -8.484375 C 7.9375 -8.710938 7.554688 -8.828125 7.078125 -8.828125 C 6.753906 -8.828125 6.4375 -8.785156 6.125 -8.703125 C 5.8125 -8.628906 5.546875 -8.515625 5.328125 -8.359375 L 5.328125 -0.03125 C 5.171875 0.0195312 4.921875 0.0664062 4.578125 0.109375 C 4.234375 0.160156 3.875 0.1875 3.5 0.1875 C 3.144531 0.1875 2.828125 0.160156 2.546875 0.109375 C 2.273438 0.0664062 2.039062 -0.0234375 1.84375 -0.171875 C 1.65625 -0.316406 1.507812 -0.507812 1.40625 -0.75 C 1.300781 -1 1.25 -1.328125 1.25 -1.734375 L 1.25 -8.921875 C 1.25 -9.359375 1.335938 -9.710938 1.515625 -9.984375 C 1.703125 -10.253906 1.957031 -10.503906 2.28125 -10.734375 C 2.820312 -11.109375 3.503906 -11.414062 4.328125 -11.65625 C 5.148438 -11.90625 6.066406 -12.03125 7.078125 -12.03125 C 8.890625 -12.03125 10.28125 -11.628906 11.25 -10.828125 C 12.226562 -10.035156 12.71875 -8.9375 12.71875 -7.53125 L 12.71875 -0.03125 C 12.5625 0.0195312 12.3125 0.0664062 11.96875 0.109375 C 11.625 0.160156 11.265625 0.1875 10.890625 0.1875 C 10.546875 0.1875 10.234375 0.160156 9.953125 0.109375 C 9.671875 0.0664062 9.429688 -0.0234375 9.234375 -0.171875 C 9.046875 -0.316406 8.898438 -0.507812 8.796875 -0.75 C 8.691406 -1 8.640625 -1.328125 8.640625 -1.734375 Z M 8.640625 -7.390625 "/></g></g></g><g fill="#b91c1c" fill-opacity="1"><g transform="translate(223.770986, 254.182205)"><g><path d="M 5.40625 -0.03125 C 5.226562 0.0078125 4.96875 0.0546875 4.625 0.109375 C 4.28125 0.160156 3.929688 0.1875 3.578125 0.1875 C 3.222656 0.1875 2.90625 0.160156 2.625 0.109375 C 2.34375 0.0664062 2.101562 -0.0234375 1.90625 -0.171875 C 1.71875 -0.316406 1.570312 -0.507812 1.46875 -0.75 C 1.363281 -1 1.3125 -1.328125 1.3125 -1.734375 L 1.3125 -15.640625 C 1.488281 -15.679688 1.75 -15.726562 2.09375 -15.78125 C 2.4375 -15.832031 2.785156 -15.859375 3.140625 -15.859375 C 3.492188 -15.859375 3.8125 -15.832031 4.09375 -15.78125 C 4.375 -15.738281 4.609375 -15.644531 4.796875 -15.5 C 4.992188 -15.351562 5.144531 -15.15625 5.25 -14.90625 C 5.351562 -14.664062 5.40625 -14.34375 5.40625 -13.9375 Z M 5.40625 -0.03125 "/></g></g></g><g fill="#b91c1c" fill-opacity="1"><g transform="translate(230.487695, 254.182205)"><g><path d="M 1.15625 -14.90625 C 1.15625 -15.507812 1.359375 -16.019531 1.765625 -16.4375 C 2.171875 -16.851562 2.710938 -17.0625 3.390625 -17.0625 C 4.054688 -17.0625 4.59375 -16.851562 5 -16.4375 C 5.40625 -16.019531 5.609375 -15.507812 5.609375 -14.90625 C 5.609375 -14.289062 5.40625 -13.773438 5 -13.359375 C 4.59375 -12.953125 4.054688 -12.75 3.390625 -12.75 C 2.710938 -12.75 2.171875 -12.953125 1.765625 -13.359375 C 1.359375 -13.773438 1.15625 -14.289062 1.15625 -14.90625 Z M 5.421875 -0.03125 C 5.242188 0.0078125 4.984375 0.0546875 4.640625 0.109375 C 4.296875 0.160156 3.945312 0.1875 3.59375 0.1875 C 3.25 0.1875 2.9375 0.160156 2.65625 0.109375 C 2.375 0.0664062 2.132812 -0.0234375 1.9375 -0.171875 C 1.75 -0.316406 1.601562 -0.507812 1.5 -0.75 C 1.394531 -1 1.34375 -1.328125 1.34375 -1.734375 L 1.34375 -11.5 C 1.519531 -11.53125 1.78125 -11.570312 2.125 -11.625 C 2.46875 -11.6875 2.816406 -11.71875 3.171875 -11.71875 C 3.523438 -11.71875 3.835938 -11.691406 4.109375 -11.640625 C 4.390625 -11.585938 4.625 -11.488281 4.8125 -11.34375 C 5.007812 -11.207031 5.160156 -11.015625 5.265625 -10.765625 C 5.367188 -10.515625 5.421875 -10.191406 5.421875 -9.796875 Z M 5.421875 -0.03125 "/></g></g></g><g fill="#b91c1c" fill-opacity="1"><g transform="translate(237.252377, 254.182205)"><g><path d="M 8.640625 -7.390625 C 8.640625 -7.890625 8.5 -8.253906 8.21875 -8.484375 C 7.9375 -8.710938 7.554688 -8.828125 7.078125 -8.828125 C 6.753906 -8.828125 6.4375 -8.785156 6.125 -8.703125 C 5.8125 -8.628906 5.546875 -8.515625 5.328125 -8.359375 L 5.328125 -0.03125 C 5.171875 0.0195312 4.921875 0.0664062 4.578125 0.109375 C 4.234375 0.160156 3.875 0.1875 3.5 0.1875 C 3.144531 0.1875 2.828125 0.160156 2.546875 0.109375 C 2.273438 0.0664062 2.039062 -0.0234375 1.84375 -0.171875 C 1.65625 -0.316406 1.507812 -0.507812 1.40625 -0.75 C 1.300781 -1 1.25 -1.328125 1.25 -1.734375 L 1.25 -8.921875 C 1.25 -9.359375 1.335938 -9.710938 1.515625 -9.984375 C 1.703125 -10.253906 1.957031 -10.503906 2.28125 -10.734375 C 2.820312 -11.109375 3.503906 -11.414062 4.328125 -11.65625 C 5.148438 -11.90625 6.066406 -12.03125 7.078125 -12.03125 C 8.890625 -12.03125 10.28125 -11.628906 11.25 -10.828125 C 12.226562 -10.035156 12.71875 -8.9375 12.71875 -7.53125 L 12.71875 -0.03125 C 12.5625 0.0195312 12.3125 0.0664062 11.96875 0.109375 C 11.625 0.160156 11.265625 0.1875 10.890625 0.1875 C 10.546875 0.1875 10.234375 0.160156 9.953125 0.109375 C 9.671875 0.0664062 9.429688 -0.0234375 9.234375 -0.171875 C 9.046875 -0.316406 8.898438 -0.507812 8.796875 -0.75 C 8.691406 -1 8.640625 -1.328125 8.640625 -1.734375 Z M 8.640625 -7.390625 "/></g></g></g><g fill="#b91c1c" fill-opacity="1"><g transform="translate(251.237526, 254.182205)"><g><path d="M 7.421875 0.390625 C 6.472656 0.390625 5.59375 0.257812 4.78125 0 C 3.976562 -0.269531 3.273438 -0.664062 2.671875 -1.1875 C 2.078125 -1.71875 1.609375 -2.382812 1.265625 -3.1875 C 0.921875 -3.988281 0.75 -4.925781 0.75 -6 C 0.75 -7.050781 0.921875 -7.957031 1.265625 -8.71875 C 1.609375 -9.476562 2.054688 -10.101562 2.609375 -10.59375 C 3.171875 -11.082031 3.8125 -11.441406 4.53125 -11.671875 C 5.25 -11.910156 5.988281 -12.03125 6.75 -12.03125 C 7.59375 -12.03125 8.363281 -11.898438 9.0625 -11.640625 C 9.757812 -11.378906 10.359375 -11.023438 10.859375 -10.578125 C 11.359375 -10.128906 11.75 -9.59375 12.03125 -8.96875 C 12.3125 -8.351562 12.453125 -7.675781 12.453125 -6.9375 C 12.453125 -6.394531 12.300781 -5.976562 12 -5.6875 C 11.695312 -5.394531 11.273438 -5.210938 10.734375 -5.140625 L 4.796875 -4.25 C 4.972656 -3.71875 5.332031 -3.316406 5.875 -3.046875 C 6.425781 -2.785156 7.050781 -2.65625 7.75 -2.65625 C 8.40625 -2.65625 9.023438 -2.738281 9.609375 -2.90625 C 10.191406 -3.082031 10.671875 -3.28125 11.046875 -3.5 C 11.296875 -3.34375 11.507812 -3.117188 11.6875 -2.828125 C 11.863281 -2.546875 11.953125 -2.242188 11.953125 -1.921875 C 11.953125 -1.203125 11.613281 -0.664062 10.9375 -0.3125 C 10.425781 -0.0390625 9.847656 0.140625 9.203125 0.234375 C 8.566406 0.335938 7.972656 0.390625 7.421875 0.390625 Z M 6.75 -9.046875 C 6.363281 -9.046875 6.03125 -8.976562 5.75 -8.84375 C 5.46875 -8.71875 5.238281 -8.554688 5.0625 -8.359375 C 4.882812 -8.160156 4.75 -7.9375 4.65625 -7.6875 C 4.570312 -7.4375 4.523438 -7.1875 4.515625 -6.9375 L 8.609375 -7.609375 C 8.566406 -7.929688 8.390625 -8.25 8.078125 -8.5625 C 7.773438 -8.882812 7.332031 -9.046875 6.75 -9.046875 Z M 6.75 -9.046875 "/></g></g></g></svg>